<svg id="Capa_1" enable-background="new 0 0 512 512" height="512" viewBox="0 0 512 512" width="512" xmlns="http://www.w3.org/2000/svg" xmlns:xlink="http://www.w3.org/1999/xlink"><linearGradient id="SVGID_1_" gradientUnits="userSpaceOnUse" x1="27.58" x2="504.532" y1="387.951" y2="112.582"><stop offset="0" stop-color="#dcfdee" stop-opacity="0"/><stop offset=".6288" stop-color="#d2f3e4"/></linearGradient><g><g><path d="m4.896 322.78c17.448 172.872 292.417 167.143 420.804 136.266 82.47-19.834 87.596-59.472 86.106-144.001-.96-54.486 3.443-198.725-32.004-244.123-54.448-69.733-103.228-25.998-170.656-3.235-86.488 29.197-120.189-22.932-202.476-21.38-120.641 2.278-110.779 187.251-101.774 276.473z" fill="url(#SVGID_1_)"/></g><g><g><g><g><g><g><path d="m455.47 450.655h-398.94c-8.284 0-15-6.716-15-15v-314.267c0-8.284 6.716-15 15-15h398.94c8.284 0 15 6.716 15 15v314.266c0 8.285-6.715 15.001-15 15.001z" fill="#2626bc" opacity=".1"/><path d="m455.47 426.655h-398.94c-8.284 0-15-6.716-15-15v-314.267c0-8.284 6.716-15 15-15h398.94c8.284 0 15 6.716 15 15v314.266c0 8.285-6.715 15.001-15 15.001z" fill="#fff"/><g><g><path d="m175.621 426.655h-110.049c-2.761 0-5-2.239-5-5v-71.73c0-2.761 2.239-5 5-5h110.048c2.761 0 5 2.239 5 5v71.73c.001 2.761-2.238 5-4.999 5z" fill="#01eca5"/><path d="m82.008 402.906 15.458-15.458 15.629 15.628c.938.938 2.209 1.464 3.535 1.464 4.454 0 6.685-5.385 3.535-8.535l-2.427-2.427 17.623-17.628 26.89 26.89c.938.938 2.209 1.464 3.535 1.464 4.454 0 6.685-5.385 3.535-8.535l-30.426-30.426c-.938-.938-2.209-1.465-3.535-1.465s-2.599.527-3.536 1.465l-21.158 21.163-9.666-9.666c-1.951-1.951-5.119-1.952-7.07.001l-18.993 18.993c-3.15 3.15-.919 8.535 3.535 8.535 1.326.001 2.598-.525 3.536-1.463z" fill="#fff"/></g><g><path d="m311.024 426.655h-110.048c-2.761 0-5-2.239-5-5v-71.73c0-2.761 2.239-5 5-5h110.048c2.761 0 5 2.239 5 5v71.73c0 2.761-2.239 5-5 5z" fill="#ff7eb8"/><path d="m217.411 402.906 15.458-15.458 15.629 15.628c.938.938 2.209 1.464 3.535 1.464 4.454 0 6.685-5.385 3.535-8.535l-2.427-2.427 17.623-17.628 26.89 26.89c.938.938 2.209 1.464 3.535 1.464 4.454 0 6.685-5.385 3.535-8.535l-30.424-30.425c-.938-.938-2.209-1.465-3.535-1.465s-2.599.527-3.536 1.465l-21.158 21.163-9.666-9.666c-1.951-1.951-5.119-1.952-7.07.001l-18.993 18.993c-3.15 3.15-.919 8.535 3.535 8.535 1.325 0 2.596-.526 3.534-1.464z" fill="#fff"/></g><g><path d="m446.428 426.655h-110.049c-2.761 0-5-2.239-5-5v-71.73c0-2.761 2.239-5 5-5h110.048c2.761 0 5 2.239 5 5v71.73c.001 2.761-2.238 5-4.999 5z" fill="#ffa8cf"/><path d="m352.815 402.906 15.458-15.458 15.629 15.628c.938.938 2.209 1.464 3.535 1.464 4.454 0 6.685-5.385 3.535-8.535l-2.427-2.427 17.623-17.628 26.89 26.89c.938.938 2.209 1.464 3.535 1.464 4.454 0 6.685-5.385 3.535-8.535l-30.426-30.426c-.938-.938-2.209-1.465-3.535-1.465s-2.599.527-3.536 1.465l-21.158 21.163-9.666-9.666c-1.951-1.951-5.119-1.952-7.07.001l-18.993 18.993c-3.15 3.15-.919 8.535 3.535 8.535 1.326.001 2.598-.525 3.536-1.463z" fill="#fff"/></g></g><g><path d="m121.253 171.328h-47.68c-2.761 0-5 2.239-5 5s2.239 5 5 5h47.681c2.761 0 5-2.239 5-5s-2.24-5-5.001-5z" fill="#9fb0fe"/></g><path d="m41.53 198.871h428.94v84.47h-428.94z" fill="#9fb0fe"/><path d="m470.47 198.871v84.47h-201.09c1.71-62.74 123.46-84.47 123.46-84.47z" fill="#b7c5ff"/><path d="m161.51 283.341h-119.98v-84.47h31.41c2.02 13.17 10.8 29.28 41.15 31.49 42.54 3.09 59.32 31.55 47.42 52.98z" fill="#8399fe"/><path d="m470.47 198.871v84.47h-87.97c-11.62-24.99 13.3-54.51-35.14-52.98-43.93 1.39-67.45-18.08-78.37-31.49z" fill="#8399fe"/><path d="m470.47 151.701v-54.313c0-8.284-6.716-15-15-15h-398.94c-8.284 0-15 6.716-15 15v54.313z" fill="#6583fe"/><path d="m455.471 431.654h-398.942c-11.028 0-20-8.972-20-20v-314.265c0-11.028 8.972-20 20-20h398.941c11.028 0 20 8.972 20 20v314.266c.001 11.028-8.971 19.999-19.999 19.999zm-398.942-344.265c-5.514 0-10 4.486-10 10v314.266c0 5.514 4.486 10 10 10h398.941c5.514 0 10-4.486 10-10v-314.266c0-5.514-4.486-10-10-10z" fill="#2626bc"/></g><g><g><circle cx="85.623" cy="119.289" fill="#ff5ba8" r="10.901"/><circle cx="120.424" cy="119.289" fill="#fff" r="10.901"/><circle cx="155.224" cy="119.289" fill="#02ffb3" r="10.901"/></g><path d="m432.277 131.537h-136.158v-24.496h136.159c2.761 0 5 2.239 5 5v14.496c-.001 2.761-2.239 5-5.001 5z" fill="#d2deff"/><path d="m296.789 107.353c-5.286-5.286-13.887-5.286-19.173 0s-5.286 13.887 0 19.173c4.037 4.037 10.003 4.98 14.953 2.852l4.348 4.348c1.952 1.952 5.119 1.952 7.071 0s1.952-5.119 0-7.071l-4.348-4.348c2.129-4.951 1.186-10.917-2.851-14.954zm-12.102 7.071c1.387-1.387 3.644-1.387 5.031 0s1.387 3.644 0 5.031-3.644 1.387-5.031 0c-1.387-1.388-1.387-3.644 0-5.031z" fill="#fff"/></g></g></g><path d="m358.368 189.655h-204.736c-2.761 0-5-2.239-5-5v-16.654c0-2.761 2.239-5 5-5h204.736c2.761 0 5 2.239 5 5v16.654c0 2.761-2.238 5-5 5z" fill="#d2deff"/><path d="m358.368 163.001h-27.007v26.654h27.007c2.761 0 5-2.239 5-5v-16.654c0-2.762-2.238-5-5-5z" fill="#8399fe"/><g fill="#d2deff"><path d="m445.934 186.652h-58.325c-2.761 0-5-2.239-5-5v-10.648c0-2.761 2.239-5 5-5h58.325c2.761 0 5 2.239 5 5v10.648c0 2.761-2.239 5-5 5z"/><circle cx="331.361" cy="259.314" r="9.298"/><path d="m188.92 283.341h-113.99c2.11-6.88 51.323-60.918 91.195-60.146 45.854.887 1.835 43.206 22.795 60.146z"/></g><g><g><path d="m190.556 307.207h-23.681c-2.761 0-5 2.239-5 5s2.239 5 5 5h23.681c2.761 0 5-2.239 5-5s-2.239-5-5-5z" fill="#6583fe"/></g><g><path d="m242.079 307.207h-23.681c-2.761 0-5 2.239-5 5s2.239 5 5 5h23.681c2.761 0 5-2.239 5-5s-2.239-5-5-5z" fill="#9fb0fe"/></g><g><path d="m293.602 307.207h-23.681c-2.761 0-5 2.239-5 5s2.239 5 5 5h23.681c2.761 0 5-2.239 5-5s-2.239-5-5-5z" fill="#9fb0fe"/></g><g><path d="m345.125 307.207h-23.681c-2.761 0-5 2.239-5 5s2.239 5 5 5h23.681c2.761 0 5-2.239 5-5s-2.239-5-5-5z" fill="#9fb0fe"/></g></g></g><path d="m285.97 263.625h-59.94c-2.761 0-5-2.239-5-5v-8.208c0-2.761 2.239-5 5-5h59.941c2.761 0 5 2.239 5 5v8.208c-.001 2.762-2.239 5-5.001 5z" fill="#02ffb3"/></g><path d="m178.716 479.234c-7.881 0-14.292-6.411-14.292-14.292 0-7.88 6.411-14.291 14.292-14.291 7.88 0 14.291 6.411 14.291 14.291 0 7.881-6.411 14.292-14.291 14.292zm0-18.583c-2.366 0-4.292 1.925-4.292 4.291s1.926 4.292 4.292 4.292 4.291-1.926 4.291-4.292-1.925-4.291-4.291-4.291z" fill="#ff5ba8"/><path d="m441.604 488.525c-7.88 0-14.291-6.411-14.291-14.291 0-7.881 6.411-14.292 14.291-14.292s14.291 6.411 14.291 14.292c0 7.88-6.412 14.291-14.291 14.291zm0-18.583c-2.366 0-4.291 1.926-4.291 4.292s1.925 4.291 4.291 4.291 4.291-1.925 4.291-4.291-1.925-4.292-4.291-4.292z" fill="#6583fe"/><path d="m233.782 60.101c-2.762 0-5-2.238-5-5 0-3.309-2.692-6-6.001-6-2.762 0-5-2.238-5-5s2.238-5 5-5c3.309 0 6.001-2.691 6.001-6 0-2.762 2.238-5 5-5s5 2.238 5 5c0 3.309 2.691 6 5.999 6 2.762 0 5 2.238 5 5s-2.238 5-5 5c-3.308 0-5.999 2.691-5.999 6 0 2.761-2.238 5-5 5z" fill="#01eca5"/><path d="m281.762 52.058c-2.762 0-5-2.238-5-5 0-3.309-2.691-6-6-6-2.762 0-5-2.238-5-5s2.238-5 5-5c3.309 0 6-2.691 6-6 0-2.762 2.238-5 5-5s5 2.238 5 5c0 3.309 2.691 6 6 6 2.762 0 5 2.238 5 5s-2.238 5-5 5c-3.309 0-6 2.691-6 6 0 2.761-2.239 5-5 5z" fill="#6583fe"/><path d="m120.424 491.942c-2.762 0-5-2.238-5-5 0-3.309-2.691-6-6-6-2.762 0-5-2.238-5-5s2.238-5 5-5c3.309 0 6-2.691 6-6 0-2.762 2.238-5 5-5s5 2.238 5 5c0 3.309 2.691 6 6 6 2.762 0 5 2.238 5 5s-2.238 5-5 5c-3.309 0-6 2.691-6 6 0 2.762-2.238 5-5 5z" fill="#01eca5"/></g></g></svg>