<svg id="Capa_1" enable-background="new 0 0 512 512" height="512" viewBox="0 0 512 512" width="512" xmlns="http://www.w3.org/2000/svg" xmlns:xlink="http://www.w3.org/1999/xlink"><linearGradient id="SVGID_1_" gradientUnits="userSpaceOnUse" x1="145.061" x2="471.767" y1="482.976" y2="93.622"><stop offset="0" stop-color="#ffd9d9" stop-opacity="0"/><stop offset=".9981" stop-color="#ffb3b3"/></linearGradient><g><g><path d="m450.495 371.149c-26.332-88.911-118.23-178.575-54.903-275.384 12.114-18.519 10.795-49.506.723-62.602-63.291-82.292-203.076 2.56-202.087 102.088.651 65.445-47.727 106.413-90.363 148.775-226.824 194.646 421.373 353.548 346.63 87.123z" fill="url(#SVGID_1_)"/></g><g><g><path d="m459.956 322.794c-14.158-13.536-33.512-28.068-56.876-42.777 8.11-5.089 15.679-10.115 22.678-15.057 3.4 2.673 7.678 4.28 12.339 4.28 11.046 0 20-8.954 20-20 0-3.021-.689-5.874-1.888-8.441 24.138-22.06 34.443-41.367 28.563-55.561-9.165-22.123-54.976-25.227-124.794-9.248 6.119-26.919 9.54-50.889 9.979-70.47.686-30.466-5.774-48.733-19.198-54.293-11.349-4.702-25.604.544-42.467 15.592-2.968-1.745-6.415-2.763-10.107-2.763-11.046 0-20 8.954-20 20 0 4.345 1.4 8.354 3.754 11.634-8.469 10.827-17.173 23.328-25.94 37.256-14.715-23.377-29.253-42.74-42.795-56.904-21.059-22.027-38.541-30.375-51.966-24.816-22.139 9.17-25.24 54.948-9.261 124.752-8.676-1.986-16.981-3.677-24.891-5.073-.047-11.006-8.979-19.914-19.996-19.914-9.389 0-17.244 6.478-19.396 15.202-33.234-1.643-54.531 4.711-60.469 19.044-5.561 13.424 2.789 30.908 24.816 51.967 14.159 13.536 33.513 28.069 56.878 42.779-14.107 8.853-26.566 17.518-37.266 25.881-4.119-2.989-9.178-4.758-14.646-4.758-13.785 0-25 11.215-25 25 0 5.233 1.619 10.094 4.379 14.114-9.794 13.326-13.083 25.075-9.162 34.54 5.327 12.859 23.021 19.295 50.61 19.295 19.89 0 44.937-3.357 74.185-10.052-6.12 26.921-9.541 50.893-9.981 70.475-.686 30.466 5.774 48.733 19.198 54.293 2.688 1.113 5.537 1.669 8.547 1.669 12.021-.001 26.578-8.869 43.419-26.485 13.536-14.158 28.068-33.511 42.777-56.876 2.867 4.569 5.714 8.97 8.538 13.189-4.465 4.518-7.227 10.722-7.227 17.561 0 13.785 11.215 25 25 25 4.48 0 8.684-1.19 12.324-3.262 18.233 20.107 34.608 30.821 47.799 30.82 2.944 0 5.732-.534 8.345-1.616 13.429-5.562 19.888-23.839 19.197-54.324-.443-19.578-3.863-43.539-9.98-70.445 13.087 2.996 25.32 5.315 36.636 6.969.988 10.122 9.519 18.034 19.901 18.034 9.303 0 17.099-6.361 19.335-14.963 26.614-.26 43.707-6.69 48.924-19.283 5.562-13.422-2.787-30.906-24.815-51.965zm-28.784-146.766c24.922-.497 40.674 4.132 44.362 13.038 3.701 8.937-4.226 23.409-22.321 40.751-1.11 1.064-2.258 2.135-3.435 3.213-3.289-2.374-7.315-3.789-11.681-3.789-11.046 0-20 8.954-20 20 0 2.735.552 5.34 1.546 7.714-8.016 5.665-16.74 11.412-26.093 17.187-6.639-4.009-13.56-8.024-20.747-12.027-1.322-.736-2.824-.789-4.141-.309-1.431-2.278-3.794-3.931-6.615-4.379l-21.752-3.456c-1.63-5.285-3.746-10.355-6.291-15.164l12.944-17.833c1.676-2.308 2.178-5.145 1.583-7.765 1.272-.592 2.294-1.7 2.708-3.155 2.251-7.911 4.303-15.639 6.162-23.168 28.455-6.729 53.614-10.454 73.771-10.858zm-61.036 96.056c4.697 2.638 9.276 5.277 13.728 7.915-4.452 2.638-9.031 5.278-13.728 7.916zm-27.838 83.031c1.455 5.182 2.822 10.28 4.104 15.289-5.01-1.282-10.107-2.648-15.29-4.103zm0-150.23-11.187-11.187c5.184-1.455 10.281-2.821 15.291-4.103-1.282 5.01-2.649 10.107-4.104 15.29zm-52.685-102.78c2.601 1.238 5.501 1.951 8.573 1.951 11.046 0 20-8.954 20-20 0-3.716-1.032-7.184-2.798-10.165 13.239-11.711 24.234-16.455 31.546-13.425 8.967 3.714 13.594 19.635 13.027 44.83-.452 20.091-4.164 45.065-10.838 73.286-7.023 1.743-14.262 3.661-21.715 5.765-1.738.491-2.985 1.847-3.441 3.467-2.923-1.072-6.283-.692-8.943 1.238l-17.833 12.944c-4.809-2.545-9.879-4.661-15.164-6.291l-3.456-21.752c-.448-2.82-2.101-5.184-4.38-6.615.48-1.317.427-2.82-.308-4.14-4.003-7.187-8.018-14.109-12.028-20.749 9.405-15.23 18.73-28.782 27.758-40.344zm-33.619 224.003c-25.459 0-46.103-20.644-46.103-46.103 0-25.47 20.644-46.114 46.103-46.114 25.47 0 46.114 20.644 46.114 46.114.001 25.459-20.643 46.103-46.114 46.103zm7.921 68.029c-2.637 4.697-5.277 9.276-7.915 13.727-2.638-4.452-5.278-9.03-7.916-13.727zm-15.831-228.274c2.638-4.697 5.278-9.276 7.916-13.729 2.638 4.452 5.278 9.032 7.916 13.729zm-96.05-60.757c-.539-25.083 4.089-40.937 13.031-44.641 8.972-3.714 23.498 4.273 40.912 22.488 13.889 14.529 28.926 34.815 44.166 59.495-4.01 6.64-8.024 13.562-12.028 20.749-.736 1.321-.789 2.824-.309 4.141-2.278 1.431-3.931 3.795-4.379 6.615l-3.456 21.751c-5.285 1.63-10.356 3.747-15.165 6.292l-17.833-12.943c-2.522-1.831-5.674-2.262-8.487-1.388-.521-1.483-1.723-2.702-3.35-3.163-7.645-2.164-15.065-4.135-22.259-5.92-6.694-28.313-10.412-53.359-10.843-73.476zm17.667 250.009 11.186 11.186c-5.183 1.455-10.28 2.821-15.29 4.103 1.282-5.009 2.649-10.107 4.104-15.289zm-.001-150.229c-1.455-5.183-2.822-10.28-4.104-15.289 5.01 1.282 10.107 2.648 15.29 4.103zm-110.747 25.091c-18.216-17.415-26.202-31.944-22.488-40.911 3.698-8.929 19.525-13.564 44.537-13.034 2.209.046 4.499.147 6.825.272 2.33 8.463 10.061 14.688 19.264 14.688 7.524 0 14.07-4.159 17.484-10.3 9.5 1.646 19.523 3.709 30.004 6.187 1.811 7.296 3.813 14.825 6.013 22.585.443 1.563 1.588 2.728 2.992 3.279-.771 2.746-.31 5.785 1.465 8.231l12.944 17.834c-2.544 4.809-4.661 9.879-6.291 15.163l-21.753 3.456c-3.274.52-5.935 2.661-7.231 5.524-1.475-.85-3.339-.941-4.933-.049-6.729 3.768-13.177 7.515-19.351 11.234-24.673-15.237-44.955-30.271-59.481-44.159zm69.183 50.024c4.453-2.638 9.03-5.279 13.727-7.917v15.831c-4.697-2.637-9.275-5.277-13.727-7.914zm-47.191 103.968c-24.991.512-40.784-4.114-44.48-13.035-2.407-5.812.11-13.971 7.143-23.738 3.876 2.472 8.473 3.912 13.402 3.912 13.785 0 25-11.215 25-25 0-4.67-1.29-9.043-3.528-12.787 11.477-8.933 24.903-18.159 39.969-27.463 6.639 4.009 13.56 8.023 20.746 12.026.771.429 1.605.633 2.429.633.589 0 1.17-.113 1.719-.314 1.432 2.273 3.792 3.922 6.608 4.369l21.752 3.456c1.63 5.285 3.746 10.355 6.291 15.164l-12.944 17.833c-1.677 2.311-2.179 5.151-1.581 7.773-1.271.592-2.296 1.693-2.71 3.147-2.251 7.912-4.303 15.641-6.162 23.17-28.399 6.716-53.513 10.439-73.654 10.854zm125.032 93.078c-17.414 18.214-31.938 26.202-40.912 22.487-8.967-3.714-13.594-19.635-13.027-44.83.452-20.092 4.164-45.068 10.839-73.291 7.142-1.772 14.497-3.719 22.083-5.864 1.662-.47 2.889-1.728 3.391-3.255 2.846.932 6.06.514 8.623-1.346l17.833-12.944c4.809 2.545 9.879 4.661 15.164 6.291l3.456 21.752c.489 3.077 2.412 5.61 5.017 6.981-.68 1.417-.691 3.128.133 4.604 3.877 6.938 7.732 13.584 11.557 19.935-15.237 24.673-30.271 44.954-44.157 59.48zm153.983-22.371c.57 25.212-4.056 41.143-13.026 44.859-8.935 3.699-23.388-4.214-40.71-22.277-1.33-1.387-2.673-2.834-4.024-4.326 3.192-4.198 5.092-9.431 5.092-15.1 0-13.785-11.215-25-25-25-3.331 0-6.509.66-9.418 1.848-3.651-5.439-7.328-11.155-11.017-17.129 4.009-6.639 8.024-13.561 12.027-20.747.736-1.321.789-2.824.309-4.141 2.278-1.431 3.931-3.795 4.379-6.615l3.456-21.753c5.284-1.63 10.354-3.746 15.163-6.29l17.834 12.944c2.563 1.861 5.778 2.278 8.624 1.346.502 1.527 1.728 2.784 3.391 3.255 7.587 2.146 14.942 4.092 22.083 5.864 6.671 28.209 10.382 53.174 10.837 73.262zm115.575-83.742c-3.453 8.336-17.463 12.923-39.677 13.069-2.225-8.619-10.029-14.996-19.343-14.996-8.209 0-15.254 4.95-18.336 12.023-12.58-1.825-26.251-4.48-40.778-7.916-1.867-7.558-3.927-15.316-6.188-23.26-.409-1.439-1.416-2.531-2.668-3.127.573-2.603.066-5.412-1.596-7.702l-12.943-17.833c2.545-4.809 4.662-9.88 6.292-15.165l21.751-3.456c3.021-.48 5.518-2.343 6.906-4.876.65.295 1.355.458 2.073.458.824 0 1.661-.205 2.433-.635 7.002-3.91 13.702-7.797 20.106-11.654 24.674 15.236 44.955 30.271 59.481 44.158 18.214 17.416 26.2 31.945 22.487 40.912z" fill="#00c" opacity=".1"/><g><g><path d="m362.047 233.427-21.752-3.456c-1.63-5.285-3.746-10.355-6.291-15.164l12.944-17.833c2.771-3.818 2.355-9.084-.98-12.419l-18.523-18.523c-3.336-3.336-8.602-3.751-12.419-.98l-17.833 12.944c-4.809-2.545-9.879-4.661-15.164-6.291l-3.456-21.752c-.74-4.659-4.758-8.089-9.475-8.089h-26.195c-4.717 0-8.735 3.43-9.475 8.089l-3.455 21.751c-5.285 1.63-10.356 3.747-15.165 6.292l-17.832-12.943c-3.818-2.771-9.084-2.355-12.419.98l-18.523 18.523c-3.336 3.336-3.751 8.602-.98 12.419l12.944 17.834c-2.544 4.809-4.661 9.879-6.291 15.163l-21.753 3.456c-4.659.74-8.089 4.758-8.089 9.475v26.195c0 4.717 3.43 8.735 8.089 9.475l21.752 3.456c1.63 5.285 3.746 10.355 6.291 15.164l-12.944 17.833c-2.771 3.818-2.355 9.084.98 12.419l18.523 18.523c3.336 3.336 8.602 3.751 12.419.98l17.833-12.944c4.809 2.545 9.879 4.661 15.164 6.291l3.456 21.752c.74 4.659 4.758 8.089 9.475 8.089h26.195c4.717 0 8.735-3.43 9.475-8.089l3.456-21.753c5.284-1.63 10.354-3.746 15.163-6.29l17.834 12.944c3.818 2.771 9.084 2.355 12.419-.98l18.523-18.523c3.336-3.336 3.751-8.602.98-12.419l-12.943-17.833c2.545-4.809 4.662-9.88 6.292-15.165l21.751-3.455c4.659-.74 8.089-4.758 8.089-9.475v-26.195c-.001-4.718-3.431-8.736-8.09-9.476zm-59.939 22.578c0 25.459-20.644 46.103-46.114 46.103-25.459 0-46.103-20.644-46.103-46.103 0-25.47 20.644-46.114 46.103-46.114 25.471 0 46.114 20.644 46.114 46.114z" fill="#9494ff"/><path d="m253.548 348.071-3.842-24.184c2.072.191 4.168.288 6.288.288 2.123 0 4.225-.097 6.298-.288l-3.842 24.185h-4.902zm45.977-39.638c3.234-2.689 6.218-5.673 8.907-8.906l14.404 19.844-3.466 3.466zm-110.362 10.938 14.403-19.843c2.689 3.233 5.673 6.217 8.906 8.906l-19.843 14.403zm-25.234-60.92v-4.901l24.185-3.842c-.191 2.073-.288 4.175-.288 6.298 0 2.12.097 4.217.288 6.288zm159.958 3.841c.191-2.071.288-4.167.288-6.287 0-2.123-.097-4.224-.289-6.297l24.184 3.842v4.901zm-15.456-49.817c-2.689-3.234-5.673-6.217-8.907-8.907l19.846-14.404 3.466 3.466zm-119.269-19.846 3.466-3.466 19.844 14.403c-3.233 2.689-6.217 5.673-8.906 8.908zm73.13-4.516c-2.073-.191-4.175-.289-6.298-.289-2.12 0-4.216.097-6.287.288l3.842-24.183h4.901z" fill="#b3b3ff"/></g><circle cx="298.186" cy="60.056" fill="#ff6c6c" r="20"/><circle cx="416.514" cy="365.008" fill="#ff6c6c" r="20"/><circle cx="282.292" cy="433.831" fill="#ffab66" r="20"/><circle cx="57.009" cy="302.108" fill="#ffab66" r="20"/><circle cx="107.091" cy="146.992" fill="#8383ff" r="20"/><g><circle cx="438.097" cy="225.241" fill="#8383ff" r="20"/><g fill="#00c"><path d="m459.956 298.793c-14.165-13.543-33.532-28.084-56.916-42.803 6.431-4.051 12.571-8.098 18.399-12.128 4.426 3.963 10.264 6.378 16.658 6.378 13.785 0 25-11.215 25-25 0-4.374-1.132-8.487-3.114-12.067 22.01-21.043 30.355-38.506 24.787-51.936-9.16-22.128-54.971-25.232-124.789-9.248 6.118-26.916 9.539-50.886 9.979-70.468.685-30.467-5.774-48.733-19.197-54.29-10.41-4.313-23.344-.206-38.479 12.193-4.016-2.753-8.871-4.367-14.097-4.367-13.785 0-25 11.215-25 25 0 5.96 2.099 11.437 5.594 15.738-7.511 9.9-15.125 20.989-22.781 33.152-14.715-23.377-29.253-42.739-42.794-56.903-21.06-22.028-38.545-30.375-51.967-24.816-22.143 9.172-25.241 54.967-9.251 124.795-6.825-1.55-13.474-2.929-19.919-4.13.011-.299.023-.598.023-.9 0-13.785-11.215-25-25-25-12.102 0-22.22 8.644-24.512 20.082-31.094-.881-49.715 5.555-55.349 19.162-5.562 13.426 2.786 30.912 24.812 51.97 14.162 13.539 33.523 28.076 56.9 42.793-13.877 8.731-26.323 17.395-37.22 25.914-4.131-3.018-9.216-4.806-14.713-4.806-13.785 0-25 11.215-25 25 0 5.222 1.612 10.074 4.361 14.089-9.987 13.469-13.071 25.087-9.141 34.566 5.325 12.86 23.013 19.295 50.607 19.294 19.888-.001 44.938-3.358 74.184-10.051-6.12 26.92-9.541 50.892-9.98 70.474-.685 30.466 5.774 48.733 19.198 54.293 2.688 1.113 5.537 1.669 8.547 1.669 12.021-.001 26.578-8.869 43.419-26.485 13.542-14.166 28.082-33.53 42.798-56.91 2.86 4.542 5.717 8.932 8.565 13.173-4.494 4.522-7.276 10.748-7.276 17.612 0 13.785 11.215 25 25 25s25-11.215 25-25-11.215-25-25-25c-3.325 0-6.499.658-9.403 1.842-3.663-5.453-7.343-11.174-11.025-17.134 3.662-6.064 7.328-12.368 10.986-18.891 5.482-1.439 9.732-5.967 10.662-11.817l2.976-18.737c3.484-1.207 6.911-2.628 10.241-4.249l15.36 11.149c4.792 3.477 10.997 3.674 15.89.818 7.204 2.026 14.257 3.891 21.143 5.591 6.672 28.213 10.384 53.181 10.839 73.271.57 25.212-4.056 41.143-13.026 44.859-8.182 3.39-19.495-3.603-27.547-10.063-2.152-1.727-5.3-1.383-7.028.77-1.729 2.154-1.384 5.301.77 7.029 10.914 8.758 20.673 13.158 29.139 13.158 2.995 0 5.829-.551 8.493-1.655 13.429-5.562 19.888-23.839 19.197-54.324-.443-19.584-3.865-43.555-9.986-70.472 11.019 2.504 21.566 4.56 31.571 6.15.588 13.267 11.562 23.88 24.972 23.88 12.118 0 22.246-8.667 24.52-20.128 24.151-.922 38.859-7.343 43.735-19.117 5.56-13.425-2.788-30.91-24.815-51.969zm-162.664 135.039c0 8.271-6.729 15-15 15s-15-6.729-15-15 6.729-15 15-15 15 6.729 15 15zm140.805-193.591c-8.271 0-15-6.729-15-15s6.729-15 15-15 15 6.729 15 15-6.728 15-15 15zm-6.924-88.213c24.913-.508 40.672 4.131 44.357 13.037 3.652 8.807-4.363 23.44-22.051 40.49-4.245-3.325-9.584-5.314-15.383-5.314-13.785 0-25 11.215-25 25 0 3.787.851 7.378 2.365 10.598-6.874 4.745-14.194 9.518-21.923 14.294-6.064-3.662-12.369-7.329-18.892-10.987-1.441-5.48-5.968-9.727-11.816-10.656l-18.735-2.977c-1.207-3.485-2.63-6.912-4.25-10.242l11.147-15.359c3.481-4.795 3.677-11.003.815-15.899 2.025-7.198 3.896-14.251 5.594-21.127 28.453-6.73 53.612-10.455 73.772-10.858zm-56.037 98.887c2.958 1.693 5.865 3.386 8.72 5.078-2.862 1.696-5.762 3.392-8.72 5.084zm-31.301-75.564-7.183-7.183c3.288-.895 6.536-1.749 9.752-2.572-.824 3.218-1.673 6.464-2.569 9.755zm-45.649-130.295c8.271 0 15 6.729 15 15s-6.729 15-15 15-15-6.729-15-15 6.728-15 15-15zm-11.676 37.097c3.488 1.85 7.46 2.903 11.676 2.903 13.785 0 25-11.215 25-25 0-4.932-1.442-9.532-3.917-13.41 11.479-9.23 21.215-12.85 27.667-10.176 8.967 3.712 13.593 19.632 13.026 44.827-.452 20.092-4.163 45.065-10.837 73.285-6.843 1.698-13.892 3.566-21.143 5.607-4.894-2.859-11.101-2.663-15.895.816l-15.359 11.148c-3.33-1.621-6.757-3.043-10.241-4.25l-2.976-18.736c-.929-5.849-5.179-10.377-10.662-11.816-3.66-6.526-7.328-12.834-10.992-18.901 8.299-13.439 16.543-25.583 24.653-36.297zm-25.428 54.71h-10.163c1.695-2.961 3.389-5.871 5.081-8.727 1.693 2.858 3.388 5.767 5.082 8.727zm-109.048-55.757c-.539-25.083 4.089-40.937 13.032-44.641 8.97-3.715 23.497 4.272 40.911 22.488 13.889 14.528 28.927 34.815 44.166 59.495-3.661 6.063-7.327 12.367-10.994 18.903-5.482 1.44-9.731 5.967-10.66 11.816l-2.977 18.735c-3.486 1.208-6.913 2.63-10.243 4.25l-15.359-11.148c-4.793-3.479-10.999-3.675-15.893-.817-7.188-2.023-14.244-3.892-21.137-5.593-6.696-28.317-10.414-53.368-10.846-73.488zm16.129 94.246c-.896-3.293-1.743-6.537-2.567-9.758 3.221.824 6.469 1.675 9.756 2.569zm-61.072-43.36c8.271 0 15 6.729 15 15s-6.729 15-15 15-15-6.729-15-15 6.729-15 15-15zm-48.138 73.987c-18.216-17.415-26.201-31.945-22.484-40.916 3.751-9.059 20.476-13.724 46.144-12.983 2.357 11.354 12.436 19.912 24.478 19.912 9.984 0 18.616-5.885 22.619-14.366 7.985 1.477 16.286 3.23 24.871 5.257 1.698 6.839 3.566 13.886 5.606 21.134-2.859 4.894-2.662 11.101.817 15.894l11.149 15.36c-1.621 3.33-3.042 6.756-4.25 10.241l-18.737 2.977c-5.851.93-10.379 5.181-11.817 10.665-6.54 3.668-12.843 7.334-18.902 10.99-24.681-15.24-44.967-30.278-59.494-44.165zm69.189 50.028c2.861-1.697 5.772-3.391 8.721-5.08v10.158c-2.958-1.693-5.865-3.386-8.721-5.078zm-71.133 31.101c8.271 0 15 6.729 15 15s-6.729 15-15 15-15-6.729-15-15 6.729-15 15-15zm23.935 72.863c-24.968.52-40.781-4.114-44.476-13.036-2.88-6.945 1.724-16.154 7.157-23.728 3.873 2.466 8.463 3.901 13.384 3.901 13.785 0 25-11.215 25-25 0-4.668-1.289-9.039-3.526-12.782 11.452-8.9 24.973-18.181 39.979-27.457 6.064 3.662 12.367 7.328 18.889 10.986 1.441 5.48 5.968 9.727 11.815 10.656l18.736 2.977c1.208 3.485 2.629 6.912 4.25 10.242l-11.148 15.359c-3.48 4.795-3.676 11.005-.813 15.9-2.025 7.198-3.895 14.251-5.594 21.128-28.399 6.716-53.513 10.439-73.653 10.854zm87.22-23.321 7.187 7.187c-3.291.895-6.537 1.746-9.755 2.57.824-3.22 1.673-6.465 2.568-9.757zm37.812 116.397c-17.415 18.216-31.947 26.202-40.911 22.487-8.967-3.714-13.594-19.635-13.028-44.83.452-20.091 4.164-45.066 10.838-73.289 6.843-1.698 13.89-3.562 21.142-5.603 4.894 2.858 11.099 2.661 15.893-.817l15.36-11.148c3.33 1.621 6.757 3.042 10.242 4.25l2.977 18.736c.93 5.85 5.18 10.378 10.663 11.817 3.649 6.505 7.319 12.808 10.996 18.894-15.241 24.683-30.281 44.973-44.172 59.503zm44.943-77.91h10.163c-1.693 2.957-3.385 5.864-5.077 8.72-1.698-2.864-3.394-5.765-5.086-8.72zm67.043-32.235-17.834-12.945c-1.543-1.12-3.59-1.265-5.276-.373-4.576 2.422-9.387 4.418-14.297 5.932-1.822.562-3.166 2.111-3.466 3.994l-3.455 21.753c-.356 2.245-2.265 3.874-4.537 3.874h-26.195c-2.272 0-4.181-1.629-4.537-3.874l-3.456-21.752c-.299-1.882-1.643-3.432-3.464-3.993-4.913-1.515-9.723-3.511-14.299-5.933-.735-.389-1.538-.581-2.338-.581-1.036 0-2.067.321-2.938.954l-17.833 12.944c-1.838 1.335-4.34 1.137-5.947-.47l-18.523-18.523c-1.607-1.607-1.804-4.108-.47-5.947l12.944-17.833c1.121-1.543 1.265-3.59.373-5.275-2.422-4.577-4.418-9.388-5.933-14.3-.562-1.822-2.11-3.166-3.993-3.464l-21.752-3.456c-2.245-.356-3.874-2.265-3.874-4.537v-26.195c0-2.272 1.629-4.181 3.874-4.537l21.753-3.456c1.882-.299 3.431-1.643 3.993-3.464 1.515-4.911 3.511-9.722 5.932-14.298.892-1.686.747-3.732-.373-5.275l-12.944-17.834c-1.334-1.839-1.137-4.34.47-5.947l18.522-18.523c1.607-1.607 4.108-1.805 5.947-.47l17.833 12.943c1.544 1.121 3.591 1.266 5.276.373 4.575-2.421 9.386-4.418 14.3-5.934 1.822-.562 3.166-2.111 3.464-3.993l3.456-21.75c.356-2.245 2.265-3.874 4.537-3.874h26.195c2.272 0 4.181 1.629 4.537 3.873l3.455 21.752c.3 1.883 1.644 3.432 3.465 3.994 4.911 1.515 9.722 3.511 14.299 5.933 1.688.893 3.732.747 5.276-.373l17.832-12.943c1.838-1.335 4.341-1.138 5.948.469l18.522 18.522c1.606 1.607 1.804 4.108.469 5.947l-12.943 17.833c-1.12 1.543-1.265 3.59-.372 5.276 2.421 4.576 4.417 9.386 5.932 14.299.562 1.822 2.111 3.166 3.994 3.464l21.752 3.456c2.244.356 3.873 2.265 3.873 4.537v26.195c0 2.272-1.629 4.181-3.873 4.537l-21.751 3.456c-1.883.299-3.432 1.643-3.994 3.464-1.515 4.914-3.511 9.725-5.933 14.299-.893 1.686-.748 3.733.372 5.276l12.944 17.833c1.334 1.838 1.137 4.34-.469 5.946l-18.523 18.523c-1.608 1.609-4.109 1.805-5.947.471zm18.687.933 7.186-7.185c.896 3.293 1.745 6.54 2.569 9.76-3.216-.823-6.468-1.681-9.755-2.575zm79.865 36.173c-8.271 0-15-6.729-15-15s6.729-15 15-15c8.267 0 14.992 6.722 14.999 14.987 0 .016-.004.031-.004.047 0 .007.002.013.002.02-.029 8.245-6.743 14.946-14.997 14.946zm59.017-33.071c-3.154 7.613-15.356 12.152-34.549 12.938-2.375-11.331-12.442-19.866-24.468-19.866-10.705 0-19.856 6.764-23.413 16.242-11.224-1.783-23.158-4.168-35.7-7.131-1.698-6.877-3.568-13.93-5.594-21.128 2.863-4.896 2.668-11.106-.813-15.901l-11.148-15.358c1.621-3.33 3.043-6.757 4.251-10.243l18.734-2.977c5.853-.93 10.382-5.184 11.819-10.67 6.512-3.65 12.82-7.316 18.897-10.987 24.683 15.242 44.971 30.28 59.498 44.169 18.216 17.412 26.201 31.942 22.486 40.912z"/><path d="m272.044 207.476c-2.618-.865-5.45.556-6.316 3.178-.867 2.622.556 5.45 3.178 6.317 16.869 5.576 28.203 21.263 28.203 39.034 0 22.664-18.444 41.103-41.115 41.103-22.664 0-41.103-18.439-41.103-41.103 0-17.835 11.384-33.539 28.328-39.079 2.625-.858 4.057-3.681 3.199-6.306-.857-2.625-3.679-4.056-6.306-3.199-21.066 6.887-35.221 26.411-35.221 48.583 0 28.178 22.925 51.103 51.103 51.103 28.185 0 51.115-22.925 51.115-51.103 0-22.093-14.092-41.595-35.065-48.528z"/></g></g></g></g><g><path d="m87.091 430.165c-2.761 0-5-2.239-5-5 0-3.492-2.841-6.333-6.333-6.333-2.761 0-5-2.239-5-5s2.239-5 5-5c3.492 0 6.333-2.841 6.333-6.333 0-2.761 2.239-5 5-5s5 2.239 5 5c0 3.492 2.841 6.333 6.333 6.333 2.761 0 5 2.239 5 5s-2.239 5-5 5c-3.492 0-6.333 2.841-6.333 6.333 0 2.761-2.239 5-5 5z" fill="#ffab66"/></g><g><path d="m438.624 80.156c-2.762 0-5-2.239-5-5 0-3.492-2.841-6.333-6.333-6.333-2.762 0-5-2.239-5-5s2.238-5 5-5c3.492 0 6.333-2.841 6.333-6.333 0-2.761 2.238-5 5-5s5 2.239 5 5c0 3.492 2.841 6.333 6.333 6.333 2.762 0 5 2.239 5 5s-2.238 5-5 5c-3.492 0-6.333 2.841-6.333 6.333 0 2.761-2.238 5-5 5z" fill="#ff6c6c"/></g><g><path d="m106.785 96.39c-2.761 0-5-2.239-5-5 0-3.492-2.841-6.333-6.333-6.333-2.761 0-5-2.239-5-5s2.239-5 5-5c3.492 0 6.333-2.841 6.333-6.333 0-2.761 2.239-5 5-5s5 2.239 5 5c0 3.492 2.841 6.333 6.333 6.333 2.761 0 5 2.239 5 5s-2.239 5-5 5c-3.492 0-6.333 2.841-6.333 6.333 0 2.761-2.239 5-5 5z" fill="#8383ff"/></g><g><path d="m425.514 120.53c-1.279 0-2.56-.488-3.535-1.464l-5.465-5.464-5.465 5.464c-1.951 1.952-5.119 1.952-7.07 0-1.953-1.953-1.953-5.119 0-7.071l9-9c1.951-1.952 5.119-1.952 7.07 0l9 9c1.953 1.953 1.953 5.118 0 7.071-.975.976-2.256 1.464-3.535 1.464z" fill="#8383ff"/></g><g><path d="m425.514 455.437c-1.279 0-2.56-.488-3.535-1.464l-5.465-5.464-5.465 5.464c-1.951 1.952-5.119 1.952-7.07 0-1.953-1.953-1.953-5.119 0-7.071l9-9c1.951-1.952 5.119-1.952 7.07 0l9 9c1.953 1.953 1.953 5.119 0 7.071-.975.976-2.256 1.464-3.535 1.464z" fill="#8383ff"/></g></g></g></svg>