<svg id="Capa_1" enable-background="new 0 0 512 512" height="512" viewBox="0 0 512 512" width="512" xmlns="http://www.w3.org/2000/svg" xmlns:xlink="http://www.w3.org/1999/xlink"><linearGradient id="SVGID_1_" gradientUnits="userSpaceOnUse" x1="12.034" x2="499.966" y1="256" y2="256"><stop offset=".0485" stop-color="#ffdbed"/><stop offset=".9993" stop-color="#d2deff"/></linearGradient><g><g><g><path d="m286.593 4.867c-94.351 27.746-75.427 93.585-85.98 166.539-13.171 91.052-70.095 44.365-135.496 93.537-113.054 85.001-30.931 272.636 109.468 244.14 74.552-15.131 89.786-70.095 120.193-128.824 39.333-75.972 104.558-55.259 163.066-104.856 118.655-100.582-37.403-309.897-171.251-270.536z" fill="url(#SVGID_1_)"/></g><g><g fill="#2626bc"><path d="m227.483 423.739c-2.045-1.857-5.208-1.703-7.063.344l-54.698 60.303c-1.855 2.046-1.701 5.208.344 7.063.958.869 2.16 1.297 3.358 1.297 1.361 0 2.718-.553 3.705-1.641l54.698-60.303c1.855-2.047 1.702-5.209-.344-7.063z" opacity=".1"/><path d="m170.744 339.27c-2.045-1.856-5.208-1.702-7.063.344l-92.77 102.275c-1.855 2.046-1.701 5.208.344 7.063.958.869 2.16 1.297 3.358 1.297 1.361 0 2.718-.553 3.705-1.641l92.77-102.275c1.855-2.046 1.701-5.209-.344-7.063z" opacity=".1"/><path d="m154.669 383.365-10.707 11.805c-1.855 2.046-1.701 5.208.344 7.063.958.869 2.16 1.297 3.358 1.297 1.361 0 2.718-.553 3.705-1.641l10.707-11.805c1.855-2.046 1.701-5.208-.344-7.063-2.046-1.857-5.208-1.702-7.063.344z" opacity=".1"/><path d="m83.222 309.775c1.361 0 2.718-.553 3.705-1.641l10.707-11.804c1.855-2.045 1.701-5.207-.344-7.063-2.045-1.857-5.208-1.702-7.063.344l-10.707 11.804c-1.855 2.045-1.701 5.207.344 7.063.958.869 2.16 1.297 3.358 1.297z" opacity=".1"/><path d="m438.684 133.592-188.132 46.358v-31.172c0-34.518-27.458-63.291-61.974-63.738-35.07-.455-63.642 27.837-63.642 62.802 0 23.715 13.148 44.354 32.548 55.042l-57.86 14.258c-4.226 1.041-5.196 6.61-1.571 9.019l55.241 36.711-49.829 54.935c-1.855 2.046-1.701 5.208.344 7.063.958.869 2.16 1.297 3.358 1.297 1.361 0 2.718-.553 3.705-1.641l50.845-56.056 26.026 17.296.161-.095-.161.762 15.267 106.097c.604 4.2 5.836 5.785 8.67 2.628l39.526-44.032 36.413 42.276-75.47 83.204c-1.855 2.046-1.701 5.208.344 7.063.958.869 2.16 1.297 3.358 1.297 1.361 0 2.718-.553 3.705-1.641l74.639-82.287 15.911 18.474c2.384 2.767 6.834 2.128 8.342-1.198l125.985-277.801c1.725-3.803-1.695-7.92-5.749-6.921z" opacity=".1"/></g><g><path d="m448.693 98.124-254.609 125.318-6.34 29.99 16.789 116.688z" fill="#4369fd"/><path d="m227.217 290.269-22.684 79.851 46.673-51.994z" fill="#6583fe"/><path d="m448.696 98.123-133.48 294.32-88-102.17z" fill="#ff7eb8"/><g><path d="m297.096 313.363c-2.08 1.81-5.24 1.6-7.06-.48l-38.31-43.87 7.55-6.55 38.29 43.84c1.82 2.08 1.61 5.24-.47 7.06z" fill="#fff"/></g><g><path d="m312.666 296.693c-2.08 1.82-5.24 1.6-7.06-.48l-36.74-42.07 7.55-6.56 36.72 42.05c1.82 2.08 1.61 5.24-.47 7.06z" fill="#fff"/></g><g><path d="m328.236 280.023c-2.08 1.82-5.24 1.61-7.06-.47l-35.17-40.28 7.55-6.56 35.16 40.26c1.81 2.08 1.6 5.24-.48 7.05z" fill="#fff"/></g><g><path d="m343.806 263.363c-2.08 1.81-5.24 1.6-7.06-.48l-33.6-38.48 7.55-6.55 33.59 38.45c1.81 2.08 1.6 5.24-.48 7.06z" fill="#fff"/></g><g><path d="m359.376 246.693c-2.08 1.82-5.24 1.6-7.05-.48l-32.04-36.68 7.55-6.56 32.02 36.66c1.81 2.08 1.6 5.24-.48 7.06z" fill="#fff"/></g><g><path d="m368.616 195.723c-2.08 1.82-5.24 1.6-7.06-.48l-10.69-12.24 7.55-6.56 10.68 12.23c1.81 2.08 1.6 5.23-.48 7.05z" fill="#fff"/></g><path d="m187.744 252.765 260.949-154.641-360.115 88.739z" fill="#ff7eb8"/><g><g><path d="m250.556 146.953v41.32c0 4.35-3.53 7.88-7.88 7.88h-54.93c-19.09 0-36.2-8.52-47.71-21.97z" fill="#ff5ba8"/></g></g></g><g><g><g><path d="m242.678 177.649h-54.933c-34.688 0-62.808-28.12-62.808-62.808 0-34.688 28.12-62.808 62.808-62.808 34.688 0 62.808 28.12 62.808 62.808v54.933c-.001 4.35-3.527 7.875-7.875 7.875z" fill="#02ffb3"/></g></g><g fill="#fff"><circle cx="216.476" cy="114.841" r="9.33"/><circle cx="187.744" cy="114.841" r="9.33"/><circle cx="159.013" cy="114.841" r="9.33"/></g></g><path d="m303.146 89.476c-2.761 0-5-2.238-5-5 0-3.309-2.691-6-6-6-2.761 0-5-2.238-5-5s2.239-5 5-5c3.309 0 6-2.691 6-6 0-2.762 2.239-5 5-5s5 2.238 5 5c0 3.309 2.691 6 6 6 2.761 0 5 2.238 5 5s-2.239 5-5 5c-3.309 0-6 2.691-6 6 0 2.761-2.239 5-5 5z" fill="#6583fe"/><path d="m403.237 371.658c-2.761 0-5-2.238-5-5 0-3.309-2.692-6-6-6-2.761 0-5-2.238-5-5s2.239-5 5-5c3.309 0 6-2.691 6-6 0-2.762 2.239-5 5-5s5 2.238 5 5c0 3.309 2.691 6 6 6 2.761 0 5 2.238 5 5s-2.239 5-5 5c-3.308 0-6 2.691-6 6 0 2.762-2.239 5-5 5z" fill="#01eca5"/><path d="m374.927 408.441c-2.761 0-5-2.238-5-5 0-3.309-2.691-6-6-6-2.761 0-5-2.238-5-5s2.239-5 5-5c3.309 0 6-2.691 6-6 0-2.762 2.239-5 5-5s5 2.238 5 5c0 3.309 2.691 6 6 6 2.761 0 5 2.238 5 5s-2.239 5-5 5c-3.309 0-6 2.691-6 6 0 2.762-2.239 5-5 5z" fill="#ff7eb8"/><path d="m74.615 350.691c-1.326 0-2.598-.526-3.536-1.465l-11.31-11.311c-.938-.938-1.464-2.209-1.464-3.535s.527-2.598 1.464-3.535l11.31-11.31c1.953-1.953 5.119-1.952 7.071-.001l11.311 11.31c.938.938 1.465 2.21 1.465 3.536s-.527 2.598-1.464 3.535l-11.312 11.312c-.938.938-2.209 1.464-3.535 1.464zm-4.239-16.31 4.239 4.239 4.239-4.239-4.239-4.238z" fill="#01eca5"/><path d="m243.907 54.778c-1.28 0-2.559-.488-3.536-1.465l-11.31-11.31c-.938-.938-1.464-2.209-1.464-3.535s.527-2.598 1.464-3.535l11.31-11.311c.938-.938 2.209-1.465 3.536-1.465s2.598.526 3.536 1.465l11.311 11.311c.938.938 1.464 2.209 1.464 3.535s-.527 2.598-1.465 3.536l-11.311 11.31c-.976.976-2.256 1.464-3.535 1.464zm-4.239-16.309 4.239 4.238 4.239-4.238-4.239-4.239z" fill="#ff7eb8"/></g></g><g fill="#2626bc"><path d="m453.676 97.845c-.009-.157-.031-.312-.055-.467-.019-.128-.036-.256-.065-.384-.04-.172-.097-.339-.155-.506-.03-.086-.044-.173-.079-.258-.009-.022-.023-.041-.033-.063-.077-.182-.175-.355-.274-.527-.047-.082-.085-.17-.137-.249-.109-.167-.24-.321-.37-.476-.058-.069-.107-.146-.168-.211-.113-.12-.245-.224-.371-.334-.094-.082-.18-.174-.28-.249-.003-.002-.005-.004-.007-.006-.135-.101-.281-.176-.422-.261-.104-.062-.2-.136-.308-.191-.258-.131-.525-.239-.797-.322-.07-.021-.145-.028-.216-.047-.205-.053-.41-.104-.619-.131-.111-.014-.225-.009-.337-.016-.176-.01-.351-.024-.527-.016-.108.005-.215.027-.324.039-.186.021-.371.043-.553.084-.028.006-.055.006-.083.013l-191.945 47.3v-25.727c0-37.39-30.418-67.809-67.808-67.809s-67.808 30.419-67.808 67.809c0 21.364 9.942 40.44 25.431 52.878l-57.986 14.289c-1.926.475-3.389 2.042-3.729 3.996s.506 3.925 2.158 5.022l69.18 45.975-51.525 56.804c-1.855 2.046-1.701 5.208.344 7.063.958.869 2.16 1.297 3.358 1.297 1.361 0 2.718-.553 3.705-1.641l52.541-57.924 19.593 13.021 16.576 115.21c.01.067.034.127.046.193.031.168.07.332.118.495.036.125.074.248.12.368.055.146.121.287.189.427.059.121.117.24.185.355.078.132.168.256.259.381.077.106.151.213.236.313.101.119.215.227.328.336.093.09.183.183.283.266.114.095.24.177.364.262.117.081.231.164.355.235.026.015.048.035.075.049.197.107.398.198.602.276.045.017.092.028.137.044.206.072.414.129.624.174.078.017.156.031.236.044.247.04.494.065.742.068.014 0 .027.004.042.004.237 0 .477-.018.718-.052.059-.009.111-.032.169-.042.155-.028.305-.071.457-.114.184-.051.365-.104.538-.175.135-.055.264-.121.394-.188.177-.091.348-.187.512-.297.117-.079.229-.164.34-.253.163-.131.314-.271.458-.421.057-.058.124-.101.178-.163l42.351-48.287 37.57 43.619-76.064 83.857c-1.855 2.046-1.701 5.208.344 7.063.958.869 2.16 1.297 3.358 1.297 1.361 0 2.718-.553 3.705-1.641l75.232-82.941 16.641 19.321c.957 1.111 2.345 1.737 3.788 1.737.236 0 .474-.017.711-.051 1.689-.242 3.138-1.33 3.843-2.884l18.687-41.205c1.141-2.516.026-5.479-2.489-6.619-2.516-1.141-5.478-.026-6.619 2.488l-15.454 34.076-79.642-92.466 200.436-173.893-91.46 201.675c-1.141 2.516-.026 5.479 2.489 6.619 2.514 1.139 5.478.025 6.619-2.488l100.907-222.506c.037-.081.055-.165.087-.247.052-.131.1-.262.14-.397.044-.147.077-.293.107-.442.027-.132.051-.263.067-.398.018-.153.025-.305.028-.459.012-.131.015-.263.008-.398zm-296.802 77.338c9.267 4.76 19.755 7.466 30.87 7.466h9.759c2.761 0 5-2.238 5-5s-2.239-5-5-5h-9.759c-31.875 0-57.808-25.932-57.808-57.807 0-31.876 25.933-57.809 57.808-57.809s57.808 25.933 57.808 57.809v54.933c0 1.585-1.289 2.874-2.874 2.874h-11.514c-2.761 0-5 2.238-5 5s2.239 5 5 5h11.514c7.099 0 12.874-5.775 12.874-12.874v-18.907l161.478-39.792-229.134 135.787-87.076-57.867zm87.179 142.295-28.646 32.661 14.082-49.57zm-20.058-31.033c-.002.002-.004.004-.006.006l-.049.042c-.076.066-.132.146-.203.216-.157.154-.316.305-.453.48-.102.13-.179.272-.267.409-.087.137-.182.266-.256.412-.102.201-.173.411-.246.622-.032.093-.08.175-.107.271l-.016.058c0 .001-.001.003-.001.004l-16.251 57.205-13.058-90.755 210.399-124.686z"/><path d="m227.483 399.738c-2.046-1.856-5.208-1.702-7.063.344l-54.698 60.303c-1.855 2.046-1.701 5.208.344 7.063.958.869 2.16 1.297 3.358 1.297 1.361 0 2.718-.553 3.705-1.641l54.698-60.303c1.856-2.046 1.702-5.208-.344-7.063z"/><path d="m170.744 315.271c-2.046-1.857-5.208-1.702-7.063.344l-92.77 102.275c-1.855 2.046-1.701 5.208.344 7.063.958.869 2.16 1.297 3.358 1.297 1.361 0 2.718-.553 3.705-1.641l92.77-102.275c1.855-2.047 1.701-5.209-.344-7.063z"/><path d="m154.669 359.365-10.707 11.804c-1.855 2.045-1.701 5.207.344 7.063.958.869 2.16 1.297 3.358 1.297 1.361 0 2.718-.553 3.705-1.641l10.707-11.804c1.855-2.045 1.701-5.207-.344-7.063-2.046-1.857-5.208-1.702-7.063.344z"/><path d="m86.928 284.135 10.707-11.805c1.855-2.046 1.701-5.208-.344-7.063-2.046-1.857-5.208-1.702-7.063.344l-10.707 11.805c-1.855 2.046-1.701 5.208.344 7.063.958.869 2.16 1.297 3.358 1.297 1.361-.001 2.718-.553 3.705-1.641z"/></g></g></svg>