<?xml version="1.0" encoding="UTF-8"?>
<!-- Generator: Adobe Illustrator 25.2.1, SVG Export Plug-In . SVG Version: 6.00 Build 0)  -->
<svg xmlns="http://www.w3.org/2000/svg" xmlns:xlink="http://www.w3.org/1999/xlink" version="1.1" id="Capa_1" x="0px" y="0px" viewBox="0 0 512 512" style="enable-background:new 0 0 512 512;" xml:space="preserve" width="512" height="512">
<g>
	<g>
		<g>
			<g>
				<g>
					<path style="fill:#241726;" d="M297.443,265.916c-0.852,0-1.441-0.144-1.677-0.47c-1.146-1.578-8.3-19.723-9.724-23.345       c-0.243-0.62,0.064-1.321,0.684-1.565c0.616-0.243,1.321,0.061,1.566,0.683c3.028,7.71,7.986,20.046,9.236,22.469       c4.186-0.028,29.383-8.464,32.513-10.881c-0.708-2.482-5.3-13.388-9.559-23.069c-0.269-0.61,0.009-1.323,0.62-1.591       c0.611-0.267,1.321,0.008,1.592,0.619c1.597,3.629,9.576,21.851,9.835,24.154c0.125,1.113-0.401,2.142-8.396,5.25       C323.901,258.26,303.658,265.916,297.443,265.916z"/>
				</g>
				<g>
					<path style="fill:#F5D66E;" d="M274.148,248.537c0,0-12.649-41.344-24.262-40.876c-42.389,1.712-85.772-43.594-47.632-101.595       c46.404-70.569,144.45-40.962,151.996,25.383c4.751,41.765-29.809,42.299-26.8,59.229c3.009,16.931,9.321,38.966,9.321,38.966       L274.148,248.537z"/>
				</g>
				<g>
					<path style="fill:#BA8296;" d="M260.989,219.758l69.574-18.76c0,0,11.083,36.064,9.258,36.712       c-1.825,0.648-63.796,19.421-64.903,18.647S260.989,219.758,260.989,219.758z"/>
				</g>
				<g>
					<path style="fill:#241726;" d="M273.457,215.553c-0.439,0-0.861-0.24-1.075-0.658c-2.644-5.177-25.711-50.82-21.51-59.267       c0.474-0.954,1.252-1.553,2.25-1.73c4.219-0.759,9.253,1.967,13.33,5.633c0.585-4.934,2.09-10.032,4.46-13.188       c2.573-3.426,5.352-3.531,7.241-3.011c2.323,0.639,4.422,2.12,6.238,4.04c1.049-1.651,2.285-3.031,3.63-3.959       c2.406-1.663,4.998-1.886,7.498-0.65c10.314,5.097,14.326,55.586,14.75,61.327c0.047,0.665-0.45,1.244-1.116,1.292       c-0.651,0.045-1.245-0.449-1.295-1.116c-1.123-15.216-5.722-55.539-13.411-59.339c-1.689-0.836-3.389-0.676-5.057,0.473       c-1.257,0.867-2.41,2.248-3.366,3.907c2.757,3.648,4.649,8.182,5.378,11.647c0.533,2.542,0.767,5.9-1.151,7.461       c-0.781,0.63-2.189,1.167-4.505,0.156c-2.717-1.188-4.415-3.932-4.778-7.728c-0.349-3.618,0.535-7.745,2.175-11.202       c-1.719-1.968-3.658-3.439-5.632-3.982c-1.703-0.469-3.236,0.225-4.668,2.133c-2.439,3.246-3.792,8.951-4.137,13.967       c0.34,0.367,0.665,0.737,0.979,1.11c1.481,1.758,4.809,6.157,3.769,9.027c-0.366,1.008-1.222,1.68-2.408,1.892       c-0.783,0.141-2.238,0.093-3.352-1.717c-1.168-1.899-1.656-5.455-1.493-9.439c-3.741-3.792-8.818-7.039-12.656-6.359       c-0.198,0.035-0.361,0.121-0.512,0.428c-2.755,5.537,11.724,37.957,21.498,57.092c0.304,0.594,0.068,1.322-0.526,1.625       C273.829,215.51,273.643,215.553,273.457,215.553z M268.643,165.426c0.09,2.379,0.465,4.331,1.108,5.381       c0.42,0.679,0.731,0.628,0.87,0.605c0.469-0.084,0.533-0.255,0.561-0.337C271.428,170.398,270.912,168.388,268.643,165.426z        M284.818,151.811c-1.13,2.812-1.715,6.01-1.446,8.803c0.196,2.04,0.934,4.694,3.342,5.747       c0.542,0.236,1.526,0.575,2.012,0.183c0.545-0.442,0.953-2.041,0.311-5.09C288.37,158.271,286.83,154.743,284.818,151.811z"/>
				</g>
				<g>
					<path style="fill:#241726;" d="M321.845,99.247c-0.46,0-0.901-0.265-1.101-0.715c-1.481-3.309-4.993-4.519-5.028-4.531       c-0.632-0.212-0.972-0.896-0.76-1.53c0.21-0.631,0.899-0.966,1.528-0.761c0.184,0.062,4.554,1.568,6.462,5.835       c0.273,0.609,0,1.323-0.609,1.596C322.177,99.213,322.01,99.247,321.845,99.247z"/>
				</g>
				<g>
					<path style="fill:#241726;" d="M323.045,109.543c-0.46,0-0.901-0.265-1.101-0.714c-1.481-3.309-4.995-4.519-5.031-4.531       c-0.632-0.212-0.972-0.896-0.759-1.528c0.21-0.633,0.901-0.968,1.528-0.762c0.184,0.063,4.557,1.569,6.465,5.835       c0.273,0.608,0,1.323-0.609,1.595C323.378,109.509,323.21,109.543,323.045,109.543z"/>
				</g>
				<g>
					<path style="fill:#241726;" d="M334.175,105.019c-0.46,0-0.901-0.265-1.102-0.715c-1.481-3.309-4.993-4.519-5.028-4.531       c-0.632-0.212-0.972-0.896-0.759-1.529c0.21-0.631,0.901-0.967,1.528-0.761c0.184,0.062,4.554,1.568,6.462,5.835       c0.274,0.609,0,1.323-0.608,1.596C334.508,104.985,334.34,105.019,334.175,105.019z"/>
				</g>
				<g>
					<path style="fill:#241726;" d="M309.399,101.632c-0.46,0-0.901-0.265-1.101-0.715c-1.481-3.309-4.993-4.519-5.029-4.531       c-0.632-0.212-0.972-0.896-0.76-1.53c0.21-0.632,0.896-0.969,1.528-0.761c0.184,0.062,4.554,1.568,6.462,5.835       c0.274,0.609,0,1.323-0.608,1.596C309.731,101.598,309.564,101.632,309.399,101.632z"/>
				</g>
				<g>
					<path style="fill:#241726;" d="M335.989,117.331c-0.46,0-0.901-0.265-1.102-0.715c-1.469-3.278-4.995-4.519-5.031-4.531       c-0.63-0.216-0.969-0.901-0.755-1.531c0.212-0.632,0.894-0.967,1.526-0.758c0.184,0.062,4.554,1.568,6.462,5.834       c0.274,0.609,0,1.323-0.608,1.596C336.322,117.297,336.154,117.331,335.989,117.331z"/>
				</g>
				<g>
					<path style="fill:#241726;" d="M343.883,130.198c-0.613,0-1.139-0.467-1.201-1.092c-0.347-3.61-3.288-5.876-3.316-5.899       c-0.533-0.402-0.637-1.159-0.233-1.691c0.406-0.533,1.165-0.633,1.691-0.233c0.156,0.118,3.816,2.94,4.264,7.592       c0.064,0.664-0.425,1.254-1.087,1.317C343.961,130.197,343.923,130.198,343.883,130.198z"/>
				</g>
				<g>
					<path style="fill:#241726;" d="M331.517,125.954c-0.594,0-1.111-0.439-1.193-1.044c-0.491-3.593-3.521-5.741-3.552-5.762       c-0.547-0.381-0.682-1.133-0.299-1.68c0.382-0.547,1.134-0.679,1.682-0.301c0.16,0.111,3.929,2.785,4.562,7.415       c0.092,0.662-0.373,1.27-1.033,1.361C331.628,125.95,331.571,125.954,331.517,125.954z"/>
				</g>
				<g>
					<path style="fill:#241726;" d="M294.297,261.908c-0.528,0-1.012-0.347-1.163-0.88c-0.182-0.642,0.193-1.309,0.835-1.489       l36.911-10.424c0.639-0.18,1.309,0.191,1.491,0.834c0.182,0.642-0.193,1.309-0.835,1.489l-36.911,10.424       C294.516,261.893,294.405,261.908,294.297,261.908z"/>
				</g>
				<g>
					<path style="fill:#241726;" d="M293.681,256.946c-0.502,0-0.972-0.316-1.144-0.82c-0.215-0.632,0.125-1.317,0.755-1.532       l34.1-11.57c0.639-0.212,1.318,0.125,1.533,0.756c0.215,0.632-0.125,1.317-0.755,1.532l-34.1,11.57       C293.941,256.926,293.809,256.946,293.681,256.946z"/>
				</g>
				<g>
					<path style="fill:#241726;" d="M267.023,233.954c-0.507,0-0.979-0.321-1.146-0.829c-0.21-0.633,0.134-1.316,0.767-1.525       l64.709-21.384c0.639-0.217,1.319,0.134,1.526,0.768c0.21,0.633-0.134,1.316-0.767,1.525l-64.709,21.384       C267.275,233.935,267.148,233.954,267.023,233.954z"/>
				</g>
				<g>
					<path style="fill:#241726;" d="M271.473,247.66c-0.538,0-1.028-0.362-1.17-0.907c-0.165-0.645,0.224-1.304,0.868-1.471       l65.296-16.807c0.649-0.163,1.304,0.224,1.472,0.869c0.165,0.645-0.224,1.304-0.868,1.47l-65.296,16.807       C271.674,247.648,271.572,247.66,271.473,247.66z"/>
				</g>
			</g>
			<g>
				<path style="fill:#EA7E94;" d="M230.245,65.555l22.944-7.849c0,0-21.736-27.17-23.548-25.963      C227.829,32.951,227.226,61.932,230.245,65.555z"/>
			</g>
			<g>
				<path style="fill:#EA7E94;" d="M302.642,57.144l21.245,11.691c0,0,5.473-34.362,3.361-34.889      C325.136,33.418,303.291,52.473,302.642,57.144z"/>
			</g>
			<g>
				<path style="fill:#EA7E94;" d="M353.918,95.6l7.053,23.201c0,0,27.904-20.786,26.76-22.638      C386.587,94.311,357.643,92.708,353.918,95.6z"/>
			</g>
			<g>
				<path style="fill:#EA7E94;" d="M364.404,155.294l-8.974,22.528c0,0,34.775,1.182,35.037-0.979      C390.729,174.682,369.119,155.36,364.404,155.294z"/>
			</g>
			<g>
				<path style="fill:#A5D5C9;" d="M272.068,52.762l20.432,2.544c0,0-7.442-27.831-9.257-27.6      C281.428,27.937,270.983,49.007,272.068,52.762z"/>
			</g>
			<g>
				<path style="fill:#A5D5C9;" d="M337.369,73.839l14.037,15.063c0,0,12.154-26.12,10.613-27.108      C360.478,60.807,338.946,70.263,337.369,73.839z"/>
			</g>
			<g>
				<path style="fill:#A5D5C9;" d="M368.848,125.654l-3.973,20.203c0,0,28.285-5.469,28.182-7.296      C392.954,136.734,372.669,124.835,368.848,125.654z"/>
			</g>
			<g>
				<path style="fill:#EA7E94;" d="M190.865,91.91l-8.107,22.854c0,0-26.924-22.041-25.696-23.839      C158.29,89.127,187.277,88.85,190.865,91.91z"/>
			</g>
			<g>
				<path style="fill:#EA7E94;" d="M181.934,160.244l11.707,21.236c0,0-34.358,5.5-34.887,3.388      C158.226,182.756,177.264,160.896,181.934,160.244z"/>
			</g>
			<g>
				<path style="fill:#EA7E94;" d="M217.4,209.391l22.403,9.28c0,0-23.406,25.746-25.138,24.426      C212.934,241.779,214.159,212.817,217.4,209.391z"/>
			</g>
			<g>
				<path style="fill:#A5D5C9;" d="M217.959,68.178l-14.255,14.857c0,0-11.77-26.295-10.215-27.26      C195.043,54.809,216.434,64.579,217.959,68.178z"/>
			</g>
			<g>
				<path style="fill:#A5D5C9;" d="M175.466,129.584l1.005,20.565c0,0-27.195-9.507-26.828-11.301      C150.01,137.056,171.804,128.22,175.466,129.584z"/>
			</g>
			<g>
				<path style="fill:#A5D5C9;" d="M193.059,191.904l17.249,11.243c0,0-23.646,16.456-24.884,15.108      C184.187,216.907,189.807,194.071,193.059,191.904z"/>
			</g>
		</g>
		<g>
			<path style="fill:#241726;" d="M122.326,183.699c-0.899,0-1.748,0-4.125-9.47c-8.029-1.545-8.731-2.486-8.965-2.802     c-0.226-0.301-0.323-0.855-0.219-1.217c0.144-0.512,0.481-1.699,9.651-5.396c3.292-8.584,4.403-8.584,5.142-8.584     c0.382,0,0.908,0.275,1.137,0.581c0.587,0.789,1.123,2.843,1.932,6.133c0.255,1.033,0.561,2.282,0.738,2.827     c0.479,0.215,1.545,0.597,2.429,0.914c4.71,1.689,5.925,2.263,6.144,3.382c0.083,0.417-0.132,1.029-0.448,1.313     c-0.958,0.859-5.519,2.552-7.908,3.402c-3.882,8.832-4.705,8.876-5.436,8.915C122.375,183.699,122.349,183.699,122.326,183.699z      M112.297,170.389c1.601,0.464,4.543,1.132,7.111,1.611c0.465,0.087,0.837,0.439,0.95,0.899c0.656,2.658,1.514,5.686,2.13,7.4     c0.889-1.596,2.243-4.445,3.342-6.962c0.135-0.307,0.389-0.545,0.705-0.656c2.194-0.772,4.672-1.721,6.205-2.393     c-1.078-0.456-2.557-0.986-3.512-1.329c-2.689-0.963-3.196-1.172-3.54-1.636c-0.299-0.403-0.486-1.08-1.156-3.801     c-0.255-1.033-0.646-2.622-0.993-3.802c-0.802,1.523-1.927,4.136-2.802,6.447c-0.12,0.316-0.368,0.568-0.681,0.693     C117.208,167.997,113.976,169.447,112.297,170.389z"/>
		</g>
		<g>
			<path style="fill:#241726;" d="M457.457,439.526c-0.898,0-1.748,0-4.125-9.47c-8.028-1.545-8.731-2.486-8.965-2.802     c-0.226-0.301-0.323-0.855-0.219-1.216c0.144-0.513,0.479-1.702,9.649-5.398c3.292-8.584,4.403-8.584,5.144-8.584     c0.382,0,0.908,0.275,1.137,0.58c0.587,0.79,1.12,2.844,1.929,6.135c0.255,1.033,0.561,2.281,0.738,2.827     c0.479,0.214,1.545,0.596,2.427,0.913c4.715,1.689,5.929,2.264,6.149,3.383c0.082,0.417-0.132,1.029-0.448,1.312     c-0.958,0.859-5.519,2.552-7.908,3.402c-3.882,8.831-4.705,8.876-5.436,8.915C457.506,439.526,457.48,439.526,457.457,439.526z      M447.428,426.215c1.602,0.465,4.543,1.133,7.111,1.612c0.465,0.087,0.837,0.439,0.951,0.899c0.656,2.658,1.514,5.686,2.13,7.4     c0.889-1.596,2.243-4.445,3.342-6.962c0.134-0.307,0.389-0.545,0.705-0.656c2.193-0.772,4.672-1.721,6.205-2.393     c-1.078-0.456-2.559-0.987-3.514-1.329c-2.686-0.964-3.194-1.172-3.538-1.633c-0.302-0.406-0.488-1.082-1.158-3.803     c-0.255-1.033-0.646-2.624-0.991-3.803c-0.802,1.523-1.929,4.136-2.804,6.448c-0.12,0.316-0.368,0.568-0.682,0.693     C452.339,423.824,449.105,425.272,447.428,426.215z"/>
		</g>
		<g>
			<path style="fill:#241726;" d="M399.981,75.753c-0.899,0-1.748,0-4.128-9.469c-8.029-1.545-8.731-2.486-8.965-2.802     c-0.227-0.301-0.323-0.855-0.22-1.217c0.144-0.512,0.481-1.699,9.651-5.396c3.293-8.584,4.403-8.584,5.144-8.584     c0.382,0,0.908,0.275,1.137,0.58c0.587,0.79,1.12,2.844,1.929,6.135c0.255,1.033,0.561,2.281,0.738,2.827     c0.479,0.215,1.545,0.597,2.429,0.913c4.71,1.69,5.925,2.264,6.144,3.383c0.082,0.419-0.132,1.031-0.451,1.314     c-0.955,0.857-5.514,2.551-7.904,3.401c-3.882,8.834-4.708,8.878-5.441,8.915C400.028,75.753,400,75.753,399.981,75.753z      M389.95,62.443c1.601,0.463,4.543,1.132,7.111,1.611c0.465,0.087,0.837,0.439,0.951,0.898c0.656,2.658,1.514,5.687,2.13,7.401     c0.889-1.595,2.245-4.446,3.344-6.962c0.134-0.308,0.389-0.546,0.705-0.657c2.194-0.772,4.672-1.722,6.203-2.393     c-1.076-0.456-2.557-0.986-3.512-1.329c-2.689-0.963-3.196-1.172-3.54-1.636c-0.299-0.403-0.486-1.08-1.156-3.801     c-0.255-1.033-0.646-2.624-0.991-3.803c-0.802,1.522-1.929,4.136-2.804,6.448c-0.12,0.316-0.368,0.568-0.682,0.693     C394.861,60.051,391.63,61.5,389.95,62.443z"/>
		</g>
		<g>
			<g>
				<path style="fill:#FFFFFF;" d="M427.945,96.58c0,0-2.504-17.676,14.588-12.116c17.092,5.561,11.699,21.82,5.15,16.338      c-6.549-5.482,5.454-24.408,18.572-16.161c13.118,8.247,10.361,24.526,1.126,25.815c-9.235,1.289,5.413-18.975,17.183-6.663      c11.77,12.312-13.442,35.215-23.924,26.987c-10.482-8.228-2.474-21.751,0.101-13.582c2.575,8.169-4.075,16.269-22.526,16.131      c-18.45-0.138-10.33-28.601-3.802-20.402c6.529,8.198-4.085,17.627-17.193,8.021C404.111,111.343,418.76,91.078,427.945,96.58z"/>
			</g>
			<g>
				<path style="fill:#241726;" d="M438.676,134.539l-0.469-0.001c-6.054-0.045-10.349-3.103-11.906-8.427      c-3.186-0.376-6.552-1.812-9.795-4.188c-5.172-3.791-6.951-9.604-4.875-15.947c2.116-6.468,7.8-11.534,12.939-11.534      c0.703,0,1.385,0.09,2.04,0.268c-0.042-2.481,0.307-6.68,2.797-9.546c2.769-3.192,7.359-3.846,13.498-1.847      c2.366,0.77,4.444,1.778,6.191,3.005c4.873-5.234,11.863-6.434,17.802-2.702c5.668,3.564,9.146,9.093,9.491,14.984      c3.307,0.068,6.349,1.533,9.048,4.355c3.696,3.866,4.401,9.101,1.991,14.741c-3.651,8.54-13.649,16.032-21.395,16.032      c-2.382,0-4.448-0.673-6.139-2c-0.814-0.639-1.552-1.331-2.205-2.067C453.537,132.858,447.004,134.539,438.676,134.539z       M428.862,126.178c1.085,2.953,3.611,5.902,9.363,5.945l0.451,0.001c9.599,0,14.793-2.251,17.562-4.39      c-2.644-4.201-2.476-8.807-1.038-11.671c0.828-1.652,2.042-2.6,3.333-2.6c0.856,0,2.434,0.439,3.359,3.374      c1.293,4.093,0.408,8.116-2.418,11.201c0.561,0.637,1.201,1.237,1.91,1.795c1.257,0.985,2.821,1.485,4.649,1.485      c6.776,0,15.916-6.944,19.173-14.566c1.42-3.322,2.311-8.12-1.514-12.122c-2.233-2.336-4.701-3.55-7.337-3.61      c-0.509,5.664-4.014,9.966-8.807,10.635c-0.347,0.048-0.667,0.071-0.96,0.071h-0.003c-2.354,0-3.259-1.452-3.321-2.81      c-0.151-3.331,4.602-8.977,10.717-10.111c-0.281-5.131-3.351-9.984-8.368-13.138c-4.932-3.103-10.538-2.124-14.633,2.181      c4.071,3.81,4.852,8.53,3.741,11.695c-0.778,2.21-2.462,3.582-4.399,3.584l0,0c-1.16,0-2.309-0.469-3.415-1.395      c-3.62-3.031-2.528-9.019,0.66-13.529c-1.523-1.045-3.337-1.913-5.408-2.586c-5.142-1.673-8.809-1.31-10.929,1.132      c-2.939,3.386-2.099,9.603-2.09,9.665c0.066,0.461-0.139,0.919-0.528,1.176c-0.389,0.257-0.889,0.27-1.288,0.03      c-0.842-0.504-1.769-0.76-2.755-0.76c-4.087,0-8.863,4.428-10.644,9.871c-0.818,2.5-2.066,8.797,4.01,13.248      c2.632,1.929,5.321,3.163,7.861,3.62c-0.474-4.126,0.564-8.78,2.644-11.39c1.028-1.288,2.236-1.968,3.491-1.968      c0.858,0,2.153,0.336,3.429,1.938c2.335,2.935,2.884,6.262,1.502,9.128C435.513,124.1,432.496,125.918,428.862,126.178z       M458.532,115.877c-0.21,0-0.712,0.344-1.175,1.268c-1.045,2.08-1.194,5.597,0.67,8.876c1.986-2.392,2.543-5.347,1.561-8.459      C459.155,116.187,458.667,115.877,458.532,115.877z M431.93,112.653c-0.488,0-1.057,0.376-1.601,1.059      c-1.561,1.957-2.682,6.133-2.073,10.078c2.965-0.084,5.413-1.422,6.432-3.535c0.962-1.998,0.519-4.394-1.219-6.574      C433.095,113.211,432.524,112.653,431.93,112.653z M473.896,101.286c-4.896,1.159-8.302,5.703-8.22,7.518      c0.009,0.225,0.024,0.505,0.908,0.505l0,0c0.191,0,0.401-0.015,0.627-0.047C470.731,108.769,473.346,105.575,473.896,101.286z       M449.447,89.718c-2.734,3.902-3.219,8.292-0.988,10.158c0.648,0.544,1.292,0.831,1.863,0.831l0,0      c0.894-0.001,1.686-0.737,2.12-1.969C453.277,96.36,452.624,92.762,449.447,89.718z"/>
			</g>
		</g>
		<g>
			<g>
				<path style="fill:#FFFFFF;" d="M112.443,211.572c0,0-2.504-17.676,14.588-12.116s11.699,21.819,5.15,16.338      c-6.549-5.482,5.454-24.408,18.572-16.161c13.118,8.247,10.361,24.526,1.126,25.816c-9.235,1.289,5.413-18.975,17.183-6.663      c11.77,12.312-13.442,35.215-23.924,26.987c-10.482-8.228-2.474-21.751,0.101-13.582c2.575,8.169-4.075,16.269-22.526,16.132      c-18.45-0.138-10.331-28.601-3.802-20.403c6.529,8.198-4.085,17.627-17.193,8.021      C88.609,226.335,103.258,206.07,112.443,211.572z"/>
			</g>
			<g>
				<path style="fill:#241726;" d="M123.175,249.53l-0.472-0.001c-6.055-0.045-10.347-3.102-11.906-8.426      c-3.187-0.376-6.552-1.813-9.795-4.188c-5.172-3.793-6.951-9.605-4.873-15.95c2.116-6.467,7.8-11.533,12.939-11.533      c0.703,0,1.382,0.09,2.04,0.268c-0.042-2.481,0.307-6.681,2.797-9.546c2.769-3.193,7.356-3.844,13.498-1.847      c2.366,0.77,4.443,1.778,6.191,3.005c4.878-5.227,11.866-6.435,17.8-2.702c5.67,3.564,9.149,9.094,9.493,14.985      c3.307,0.07,6.347,1.534,9.045,4.355c3.696,3.865,4.403,9.098,1.993,14.738c-3.651,8.541-13.649,16.035-21.394,16.036      c-2.382,0-4.448-0.673-6.139-2c-0.814-0.64-1.552-1.333-2.205-2.068C138.036,247.849,131.503,249.53,123.175,249.53z       M113.359,241.17c1.087,2.952,3.613,5.901,9.363,5.944l0.453,0.001c9.599,0,14.793-2.251,17.56-4.39      c-2.644-4.199-2.474-8.807-1.036-11.671c0.828-1.652,2.043-2.6,3.33-2.6c0.859,0,2.436,0.439,3.361,3.374      c1.29,4.094,0.406,8.117-2.417,11.201c0.561,0.637,1.201,1.238,1.91,1.795c1.255,0.986,2.818,1.486,4.649,1.486      c6.776-0.001,15.915-6.945,19.173-14.57c1.42-3.32,2.309-8.118-1.516-12.118c-2.231-2.335-4.698-3.548-7.335-3.61      c-0.509,5.664-4.014,9.965-8.807,10.633c-3.165,0.439-4.215-1.212-4.283-2.741c-0.151-3.331,4.602-8.975,10.717-10.11      c-0.281-5.131-3.352-9.983-8.371-13.138c-4.927-3.102-10.538-2.119-14.63,2.18c4.071,3.811,4.852,8.531,3.738,11.696      c-1.234,3.513-4.875,4.643-7.814,2.188c-3.618-3.03-2.526-9.019,0.663-13.529c-1.521-1.044-3.337-1.911-5.408-2.586      c-5.139-1.673-8.809-1.31-10.93,1.132c-2.939,3.386-2.099,9.603-2.09,9.665c0.066,0.461-0.139,0.919-0.528,1.176      c-0.387,0.258-0.892,0.268-1.288,0.031c-0.842-0.505-1.769-0.761-2.755-0.761c-4.09,0-8.863,4.427-10.644,9.869      c-0.819,2.501-2.066,8.799,4.007,13.25c2.632,1.929,5.321,3.163,7.861,3.62c-0.474-4.125,0.561-8.779,2.644-11.388      c1.028-1.289,2.233-1.969,3.491-1.969c0.858,0,2.153,0.336,3.429,1.937c2.335,2.935,2.884,6.262,1.502,9.128      C120.01,239.092,116.993,240.911,113.359,241.17z M143.029,230.868c-0.208,0-0.71,0.344-1.172,1.268      c-1.045,2.081-1.193,5.597,0.67,8.876c1.984-2.391,2.54-5.347,1.561-8.459C143.654,231.178,143.166,230.868,143.029,230.868z       M116.427,227.645c-0.488,0-1.057,0.376-1.604,1.06c-1.559,1.958-2.679,6.133-2.071,10.077c2.965-0.084,5.413-1.422,6.432-3.535      c0.962-1.998,0.519-4.394-1.219-6.574C117.592,228.203,117.021,227.645,116.427,227.645z M158.395,216.277      c-4.896,1.158-8.302,5.702-8.22,7.518c0.009,0.225,0.021,0.505,0.908,0.505c0.191,0,0.401-0.015,0.627-0.047      C155.23,223.76,157.846,220.566,158.395,216.277z M133.946,204.71c-2.734,3.901-3.219,8.29-0.991,10.157      c1.667,1.398,3.274,0.881,3.984-1.138C137.776,211.352,137.123,207.754,133.946,204.71z"/>
			</g>
		</g>
		<g>
			<g>
				<path style="fill:#FFFFFF;" d="M451.112,346.445c0,0-2.504-17.676,14.588-12.116c17.092,5.56,11.699,21.819,5.15,16.337      s5.454-24.408,18.572-16.161c13.118,8.247,10.361,24.526,1.125,25.816c-9.235,1.289,5.413-18.975,17.183-6.663      c11.77,12.312-13.442,35.215-23.924,26.987c-10.482-8.228-2.474-21.751,0.101-13.582c2.575,8.169-4.075,16.269-22.526,16.131      c-18.45-0.137-10.331-28.601-3.802-20.402c6.529,8.198-4.085,17.627-17.193,8.021      C427.278,361.208,441.927,340.943,451.112,346.445z"/>
			</g>
			<g>
				<path style="fill:#241726;" d="M461.841,384.404l-0.469-0.001c-6.054-0.045-10.349-3.103-11.906-8.427      c-3.186-0.376-6.552-1.813-9.795-4.188c-5.172-3.791-6.948-9.604-4.873-15.947c2.116-6.467,7.8-11.534,12.939-11.534      c0.703,0,1.385,0.09,2.04,0.268c-0.043-2.481,0.307-6.681,2.797-9.546c2.769-3.195,7.356-3.847,13.498-1.847      c2.366,0.77,4.444,1.778,6.191,3.005c4.873-5.235,11.863-6.435,17.802-2.702c5.667,3.564,9.146,9.093,9.491,14.984      c3.307,0.07,6.347,1.534,9.045,4.356c3.696,3.865,4.403,9.099,1.993,14.739c-3.651,8.541-13.649,16.033-21.395,16.033      c-2.382,0-4.448-0.673-6.139-2.001c-0.814-0.639-1.552-1.331-2.205-2.067C476.705,382.722,470.169,384.404,461.841,384.404z       M452.027,376.042c1.085,2.953,3.611,5.902,9.363,5.945l0.45,0.001c9.599,0,14.795-2.252,17.562-4.392      c-2.644-4.199-2.474-8.806-1.035-11.67c0.828-1.652,2.042-2.6,3.33-2.6c0.858,0,2.436,0.439,3.361,3.374      c1.29,4.094,0.406,8.117-2.418,11.2c0.561,0.637,1.201,1.238,1.91,1.795c1.255,0.986,2.821,1.486,4.649,1.486      c6.776,0,15.913-6.944,19.173-14.568c1.42-3.321,2.309-8.119-1.516-12.119c-2.231-2.335-4.698-3.548-7.335-3.611      c-0.509,5.664-4.014,9.966-8.807,10.635c-0.347,0.048-0.667,0.071-0.96,0.071c-0.002,0-0.002,0-0.002,0      c-2.356,0-3.262-1.452-3.323-2.811c-0.151-3.331,4.604-8.977,10.719-10.11c-0.28-5.131-3.351-9.984-8.368-13.138      c-4.932-3.103-10.536-2.121-14.635,2.18c4.073,3.81,4.854,8.53,3.741,11.694c-0.776,2.21-2.462,3.584-4.399,3.585l0,0      c-1.16,0-2.309-0.469-3.415-1.395c-3.618-3.031-2.526-9.019,0.663-13.529c-1.524-1.045-3.337-1.913-5.408-2.586      c-5.142-1.672-8.807-1.309-10.929,1.132c-2.939,3.386-2.099,9.603-2.09,9.665c0.066,0.461-0.139,0.919-0.528,1.176      c-0.392,0.256-0.891,0.269-1.288,0.03c-0.842-0.504-1.769-0.759-2.755-0.759c-4.087,0-8.863,4.428-10.644,9.87      c-0.818,2.501-2.066,8.798,4.007,13.248c2.632,1.929,5.321,3.163,7.861,3.62c-0.474-4.126,0.564-8.78,2.644-11.389      c1.028-1.288,2.236-1.968,3.491-1.968c0.859,0,2.153,0.336,3.429,1.938c2.335,2.935,2.884,6.262,1.502,9.128      C458.678,373.965,455.662,375.783,452.027,376.042z M481.698,365.742c-0.208,0-0.71,0.344-1.172,1.268      c-1.045,2.08-1.193,5.597,0.67,8.876c1.984-2.392,2.54-5.347,1.561-8.459C482.323,366.052,481.835,365.742,481.698,365.742z       M455.096,362.517c-0.488,0-1.057,0.376-1.602,1.059c-1.561,1.958-2.682,6.134-2.073,10.078      c2.965-0.084,5.413-1.422,6.432-3.536c0.962-1.998,0.519-4.394-1.219-6.574C456.261,363.075,455.69,362.517,455.096,362.517z       M497.064,351.15c-4.896,1.158-8.304,5.702-8.222,7.518c0.012,0.225,0.023,0.505,0.91,0.505l0,0      c0.191,0,0.401-0.015,0.627-0.047C493.899,358.634,496.514,355.438,497.064,351.15z M472.615,339.583      c-2.734,3.902-3.222,8.292-0.991,10.158c0.649,0.544,1.293,0.831,1.863,0.831l0,0c0.894-0.001,1.686-0.737,2.12-1.971      C476.443,346.224,475.792,342.627,472.615,339.583z"/>
			</g>
		</g>
		<g>
			<g>
				<g>
					<path style="fill:#F5D66E;" d="M128.003,323.373c34.617,9.661,23.346,125.588,78.895,118.343       c49.613-6.471,88.693-69.432,103.67-97.22l-9.98-12.775c-16.939,23.372-70.353,92.414-102.545,81.013       c-46.315-16.403-19.321-118.343-61.989-122.368c-45.71-4.312-103.135,61.547-119.185,109.006l21.446,14.847       C49.479,377.611,90.635,312.945,128.003,323.373z"/>
				</g>
				<g>
					<path style="fill:#EA7E94;" d="M136.054,290.366c42.668,4.025,15.673,105.964,61.989,122.368       c32.192,11.401,85.606-57.641,102.545-81.013l-6.465-8.275c0,0-73.515,96.667-101.519,60.203       c-20.323-26.463-0.346-106.587-56.661-113.323C88.13,264.606,21.736,305.662,0,386.569l16.869,12.802       C32.919,351.912,90.344,286.053,136.054,290.366z"/>
				</g>
				<g>
					<path style="fill:#A5D5C9;" d="M111.902,356.38c41.057-9.661,29.61,111.848,94.191,111.097       c57.855-0.673,100.524-84.53,112.989-112.083l-8.514-10.898c-14.977,27.787-54.057,90.748-103.67,97.22       c-55.549,7.245-44.278-108.682-78.895-118.343c-37.368-10.428-78.524,54.238-89.688,90.846l27.815,19.257       C75.4,407.461,94.385,360.502,111.902,356.38z"/>
				</g>
				<g>
					<path style="fill:#BA8296;" d="M319.082,355.394c-12.466,27.553-55.134,111.41-112.989,112.083       c-64.581,0.751-53.133-120.758-94.191-111.097c-17.518,4.122-36.502,51.081-45.772,77.095l16.692,11.556       c0,0,20.068-66.105,44.857-50.759c24.79,15.346,8.263,95.616,86.173,89.714c77.91-5.902,109.782-122.767,109.782-122.767       L319.082,355.394z"/>
				</g>
				<g>
					<path style="fill:#241726;" d="M208.507,414.746c-24.251,0-38.169-9.928-42.26-62.298c-2.595-33.218-9.88-51.874-22.925-58.712       c-11.529-6.047-27.668-2.857-49.327,9.749c-39.871,23.208-65.426,55.571-75.955,96.189c-0.167,0.644-0.821,1.039-1.472,0.866       c-0.646-0.167-1.035-0.827-0.868-1.472c10.698-41.265,36.631-74.126,77.077-97.67c22.435-13.057,39.338-16.265,51.666-9.801       c13.852,7.262,21.543,26.537,24.208,60.663c3.969,50.781,16.536,60.071,39.855,60.071c33.546,0,72.646-63.189,73.035-63.827       c0.351-0.57,1.099-0.746,1.66-0.399c0.571,0.348,0.748,1.092,0.401,1.66c-0.099,0.162-10.08,16.375-24.175,32.37       C240.359,403.774,223.227,414.746,208.507,414.746z"/>
				</g>
				<g>
					<path style="fill:#241726;" d="M205.672,441.774c-3.526,0-6.977-0.433-10.347-1.305c-25.548-6.606-35.246-40.476-43.805-70.358       c-7.363-25.714-13.731-47.951-27.982-47.951c-0.111,0-0.224,0.001-0.337,0.005c-32.31,0.788-77.466,55.663-83.695,92.256       c-0.113,0.659-0.738,1.1-1.394,0.987c-0.658-0.111-1.099-0.735-0.988-1.393c6.51-38.231,52.096-93.438,86.021-94.265       c0.137-0.003,0.276-0.005,0.413-0.005c16.055,0,22.654,23.048,30.286,49.701c8.38,29.26,17.875,62.424,42.086,68.686       c45.301,11.701,89.986-63.091,90.434-63.848c0.337-0.577,1.08-0.764,1.653-0.427c0.576,0.339,0.767,1.079,0.427,1.653       c-0.113,0.192-11.54,19.448-28.553,36.958C241.105,431.807,222.573,441.774,205.672,441.774z"/>
				</g>
				<g>
					<path style="fill:#241726;" d="M204.764,469.144c-4.682,0-9.201-0.706-13.54-2.13c-22.439-7.363-34.265-38.152-44.697-65.315       c-9.357-24.364-17.472-45.394-30.338-42.529c-28.364,6.302-49.643,70.1-48.975,76.791c0.068,0.664-0.417,1.256-1.08,1.322       c-0.639,0.073-1.255-0.417-1.321-1.081c-0.917-9.178,21.673-72.905,50.853-79.39c14.937-3.301,23.364,18.621,33.116,44.022       c10.241,26.661,21.845,56.88,43.197,63.886c50.048,16.424,107.519-71.871,108.095-72.765c0.361-0.562,1.106-0.719,1.67-0.362       c0.561,0.361,0.724,1.107,0.363,1.669c-0.146,0.227-14.807,22.891-35.595,43.18       C244.371,458.048,223.309,469.144,204.764,469.144z"/>
				</g>
			</g>
			<g>
				<g>
					<path style="fill:#EA7E94;" d="M308.172,253.952c0,0-45.657-9.858-76.204,2.117c-46.337,18.165-50.934,115.185-39.854,109.001       c11.08-6.184,37.255-31.54,42.738-32.193c5.483-0.652,39.799,1.52,39.799,1.52L308.172,253.952z"/>
				</g>
				<g>
					<path style="fill:#EA7E94;" d="M404.507,331.041c0,0,20.297,42.068,15.824,74.573c-6.785,49.305-100.016,76.542-96.605,64.32       c3.411-12.222,21.917-43.616,21.265-49.099c-0.652-5.483-10.817-38.331-10.817-38.331L404.507,331.041z"/>
				</g>
				<g>
					<g>
						<path style="fill:#FFFFFF;" d="M463.49,153.453c0,0-142.424,33.629-176.694,96.092        c-34.271,62.463-26.724,118.096-26.724,118.096l51.345,42.081c0,0,84.681-36.025,122.583-75.752        C462.367,304.238,463.49,153.453,463.49,153.453z"/>
					</g>
					<g>
						<path style="fill:#241726;" d="M311.415,410.929c-0.274,0-0.545-0.093-0.767-0.273l-51.343-42.08        c-0.236-0.193-0.389-0.469-0.429-0.771c-0.078-0.56-7.208-56.747,26.862-118.84c34.133-62.215,176.044-96.348,177.474-96.686        c0.366-0.081,0.743,0.001,1.031,0.231c0.29,0.231,0.458,0.583,0.455,0.954c-0.002,0.377-0.326,38.221-4.113,79.211        c-5.102,55.237-13.753,89.598-25.711,102.13c-37.64,39.451-122.137,75.668-122.986,76.029        C311.736,410.897,311.576,410.929,311.415,410.929z M261.214,367.016l50.397,41.305c8.052-3.499,85.99-37.951,121.517-75.186        c26.182-27.444,28.904-162.079,29.135-178.138c-15.333,3.841-142.668,37.278-174.408,95.129        C255.801,308.547,260.607,361.53,261.214,367.016z"/>
					</g>
				</g>
				<g>
					<path style="fill:#EA7E94;" d="M358.124,188.928c0,0,40.955,52.121,99.372,75.753c0,0,21.986-113.13,18.429-119.658       C472.368,138.495,358.124,188.928,358.124,188.928z"/>
				</g>
				<g>
					<path style="fill:#EA7E94;" d="M343.78,319.209c0,0-65.528,9.949-71.403,28.403c-5.874,18.453-10.626,59.907-7.746,66.02       c2.879,6.113,60.237-22.77,68.22-28.024C340.834,380.354,346.836,317.769,343.78,319.209z"/>
				</g>
				<g>
					
						<ellipse transform="matrix(0.8524 -0.5229 0.5229 0.8524 -91.3293 235.7451)" style="fill:#668E9D;" cx="371.9" cy="279.64" rx="43.923" ry="43.923"/>
				</g>
				<g>
					
						<ellipse transform="matrix(0.7952 -0.6064 0.6064 0.7952 -93.0131 283.1797)" style="fill:#F5D66E;" cx="372.691" cy="279.279" rx="29.614" ry="29.614"/>
				</g>
				<g>
					<path style="fill:#241726;" d="M433.786,170.233c-0.314,0-0.627-0.122-0.863-0.363c-0.467-0.476-0.458-1.242,0.019-1.708       c0.587-0.575,5.875-5.622,10.288-5.622c0.667,0,1.208,0.54,1.208,1.208c0,0.668-0.54,1.208-1.208,1.208       c-2.915,0-7.196,3.561-8.599,4.933C434.395,170.119,434.091,170.233,433.786,170.233z"/>
				</g>
				<g>
					<path style="fill:#241726;" d="M428.786,187.454c-0.314,0-0.627-0.122-0.863-0.363c-0.467-0.476-0.458-1.242,0.019-1.708       c0.587-0.575,5.875-5.622,10.288-5.622c0.668,0,1.208,0.54,1.208,1.208s-0.54,1.208-1.208,1.208       c-2.915,0-7.196,3.561-8.599,4.933C429.395,187.34,429.09,187.454,428.786,187.454z"/>
				</g>
				<g>
					<path style="fill:#241726;" d="M413.234,180.232c-0.314,0-0.627-0.121-0.863-0.363c-0.467-0.476-0.457-1.242,0.019-1.708       c0.587-0.576,5.875-5.622,10.288-5.622c0.667,0,1.208,0.54,1.208,1.208c0,0.668-0.54,1.208-1.208,1.208       c-2.915,0-7.196,3.561-8.599,4.933C413.842,180.118,413.538,180.232,413.234,180.232z"/>
				</g>
				<g>
					<path style="fill:#241726;" d="M409.345,195.23c-0.314,0-0.627-0.122-0.863-0.363c-0.467-0.476-0.458-1.242,0.019-1.707       c0.587-0.576,5.875-5.622,10.288-5.622c0.668,0,1.208,0.54,1.208,1.208c0,0.667-0.54,1.208-1.208,1.208       c-2.915,0-7.196,3.561-8.599,4.933C409.953,195.116,409.649,195.23,409.345,195.23z"/>
				</g>
				<g>
					<path style="fill:#241726;" d="M391.568,190.787c-0.314,0-0.627-0.121-0.863-0.363c-0.467-0.477-0.458-1.242,0.019-1.708       c0.587-0.575,5.875-5.622,10.288-5.622c0.667,0,1.208,0.54,1.208,1.208c0,0.667-0.54,1.207-1.208,1.207       c-2.915,0-7.196,3.561-8.599,4.933C392.177,190.672,391.872,190.787,391.568,190.787z"/>
				</g>
				<g>
					<path style="fill:#241726;" d="M392.681,202.452c-0.314,0-0.627-0.121-0.863-0.363c-0.467-0.478-0.457-1.242,0.019-1.708       c0.587-0.576,5.873-5.622,10.286-5.622c0.667,0,1.208,0.54,1.208,1.208c0,0.667-0.54,1.208-1.208,1.208       c-2.908,0-7.191,3.561-8.597,4.933C393.29,202.338,392.986,202.452,392.681,202.452z"/>
				</g>
				<g>
					<path style="fill:#241726;" d="M447.119,171.344c-0.314,0-0.627-0.121-0.863-0.364c-0.467-0.477-0.458-1.241,0.019-1.706       c0.587-0.575,5.875-5.622,10.286-5.622c0.667,0,1.208,0.54,1.208,1.208c0,0.667-0.54,1.208-1.208,1.208       c-2.906,0-7.191,3.561-8.597,4.933C447.728,171.23,447.423,171.344,447.119,171.344z"/>
				</g>
				<g>
					<path style="fill:#241726;" d="M424.899,198.563c-0.314,0-0.627-0.121-0.863-0.364c-0.467-0.477-0.458-1.241,0.019-1.706       c0.59-0.576,5.875-5.62,10.288-5.62c0.668,0,1.208,0.54,1.208,1.208c0,0.667-0.54,1.207-1.208,1.207       c-2.908,0-7.194,3.56-8.599,4.933C425.508,198.448,425.203,198.563,424.899,198.563z"/>
				</g>
				<g>
					<path style="fill:#241726;" d="M226.033,272.443c-0.314,0-0.627-0.121-0.863-0.363c-0.467-0.477-0.458-1.242,0.019-1.708       c0.587-0.576,5.875-5.622,10.288-5.622c0.667,0,1.207,0.54,1.207,1.208c0,0.667-0.54,1.208-1.207,1.208       c-2.915,0-7.196,3.561-8.599,4.933C226.642,272.329,226.338,272.443,226.033,272.443z"/>
				</g>
				<g>
					<path style="fill:#241726;" d="M244.949,263.895c-0.422,0-0.833-0.223-1.054-0.619c-0.326-0.581-0.118-1.317,0.465-1.643       c0.719-0.401,7.142-3.893,11.401-2.733c0.644,0.174,1.024,0.837,0.849,1.481c-0.175,0.643-0.828,1.031-1.481,0.849       c-2.811-0.757-7.878,1.556-9.59,2.512C245.352,263.845,245.15,263.895,244.949,263.895z"/>
				</g>
				<g>
					<path style="fill:#241726;" d="M303.472,349.47c-0.281,0-0.564-0.098-0.792-0.297c-0.505-0.438-0.557-1.201-0.118-1.704       c0.54-0.62,5.408-6.072,9.807-6.426c0.668-0.033,1.248,0.442,1.3,1.107c0.054,0.665-0.441,1.246-1.106,1.301       c-2.908,0.233-6.889,4.125-8.179,5.605C304.144,349.33,303.809,349.47,303.472,349.47z"/>
				</g>
				<g>
					<path style="fill:#241726;" d="M291.252,360.024c-0.281,0-0.564-0.098-0.792-0.297c-0.505-0.438-0.557-1.201-0.118-1.704       c0.54-0.62,5.408-6.073,9.805-6.426c0.665-0.049,1.248,0.442,1.3,1.107c0.054,0.665-0.441,1.248-1.106,1.301       c-2.906,0.232-6.887,4.125-8.177,5.605C291.924,359.884,291.589,360.024,291.252,360.024z"/>
				</g>
				<g>
					<path style="fill:#241726;" d="M306.25,360.58c-0.281,0-0.564-0.098-0.792-0.297c-0.505-0.437-0.557-1.201-0.118-1.704       c0.54-0.62,5.408-6.073,9.804-6.426c0.656-0.044,1.248,0.442,1.299,1.107c0.054,0.665-0.441,1.248-1.106,1.301       c-2.906,0.232-6.887,4.125-8.177,5.605C306.922,360.439,306.587,360.58,306.25,360.58z"/>
				</g>
				<g>
					<path style="fill:#241726;" d="M404.229,416.094c-0.311,0-0.623-0.12-0.859-0.36c-0.469-0.474-0.465-1.238,0.009-1.707       c2.071-2.043,2.618-7.589,2.653-9.552c0.012-0.666,0.642-1.199,1.229-1.186c0.668,0.013,1.198,0.562,1.186,1.229       c-0.014,0.823-0.231,8.129-3.37,11.229C404.842,415.979,404.536,416.094,404.229,416.094z"/>
				</g>
				<g>
					<path style="fill:#241726;" d="M411.448,396.096c-0.311,0-0.623-0.12-0.858-0.36c-0.469-0.474-0.465-1.238,0.009-1.707       c2.076-2.048,2.62-7.589,2.656-9.551c0.012-0.665,0.514-1.156,1.229-1.186c0.667,0.012,1.198,0.563,1.186,1.229       c-0.014,0.823-0.233,8.128-3.373,11.228C412.062,395.98,411.755,396.096,411.448,396.096z"/>
				</g>
				<g>
					<path style="fill:#241726;" d="M398.118,397.207c-0.311,0-0.623-0.12-0.859-0.36c-0.469-0.474-0.465-1.238,0.009-1.708       c2.076-2.048,2.62-7.589,2.653-9.551c0.012-0.665,0.545-1.158,1.229-1.186c0.667,0.012,1.198,0.561,1.186,1.229       c-0.014,0.823-0.231,8.128-3.37,11.228C398.731,397.091,398.424,397.207,398.118,397.207z"/>
				</g>
				<g>
					<path style="fill:#241726;" d="M393.118,417.76c-0.311,0-0.623-0.12-0.858-0.36c-0.469-0.474-0.465-1.238,0.009-1.708       c2.071-2.043,2.618-7.589,2.656-9.553c0.012-0.666,0.542-1.236,1.229-1.185c0.667,0.013,1.198,0.563,1.186,1.229       c-0.014,0.823-0.233,8.129-3.373,11.229C393.731,417.645,393.424,417.76,393.118,417.76z"/>
				</g>
				<g>
					<path style="fill:#241726;" d="M398.026,433.541c-0.465,0-0.908-0.27-1.106-0.723c-0.266-0.611,0.01-1.323,0.62-1.591       c2.663-1.166,5.161-6.149,5.896-7.969c0.252-0.619,0.953-0.919,1.573-0.666c0.618,0.25,0.917,0.953,0.667,1.571       c-0.309,0.763-3.127,7.507-7.165,9.277C398.354,433.508,398.189,433.541,398.026,433.541z"/>
				</g>
				<g>
					<path style="fill:#241726;" d="M383.026,436.875c-0.465,0-0.908-0.27-1.106-0.723c-0.267-0.611,0.009-1.323,0.62-1.591       c2.672-1.171,5.165-6.15,5.899-7.97c0.252-0.62,0.953-0.915,1.573-0.669c0.618,0.25,0.918,0.954,0.668,1.572       c-0.309,0.763-3.127,7.507-7.168,9.279C383.353,436.842,383.188,436.875,383.026,436.875z"/>
				</g>
				<g>
					<path style="fill:#241726;" d="M288.474,371.69c-0.281,0-0.564-0.098-0.793-0.297c-0.505-0.438-0.557-1.201-0.118-1.704       c0.54-0.62,5.408-6.073,9.807-6.426c0.656-0.031,1.248,0.441,1.299,1.107c0.054,0.665-0.441,1.248-1.106,1.301       c-2.908,0.232-6.889,4.125-8.179,5.605C289.146,371.549,288.811,371.69,288.474,371.69z"/>
				</g>
				<g>
					<path style="fill:#241726;" d="M285.698,383.354c-0.281,0-0.564-0.098-0.793-0.297c-0.502-0.439-0.556-1.201-0.118-1.703       c0.54-0.622,5.406-6.073,9.804-6.426c0.67-0.034,1.248,0.442,1.3,1.107c0.054,0.665-0.441,1.248-1.106,1.301       c-2.901,0.232-6.887,4.124-8.177,5.604C286.37,383.214,286.035,383.354,285.698,383.354z"/>
				</g>
				<g>
					<path style="fill:#241726;" d="M304.028,372.245c-0.281,0-0.564-0.098-0.793-0.297c-0.505-0.438-0.557-1.201-0.118-1.704       c0.54-0.62,5.408-6.073,9.804-6.426c0.651-0.047,1.248,0.442,1.3,1.107c0.054,0.665-0.441,1.248-1.106,1.301       c-2.906,0.232-6.887,4.125-8.177,5.605C304.7,372.105,304.366,372.245,304.028,372.245z"/>
				</g>
				<g>
					<path style="fill:#241726;" d="M219.5,285.999c-0.295,0-0.59-0.107-0.823-0.323c-0.488-0.454-0.516-1.218-0.061-1.706       c0.559-0.603,5.599-5.897,10.007-6.109c0.641-0.054,1.231,0.483,1.262,1.149c0.033,0.666-0.481,1.232-1.149,1.264       c-2.903,0.139-7.014,3.902-8.352,5.34C220.147,285.869,219.823,285.999,219.5,285.999z"/>
				</g>
				<g>
					<path style="fill:#241726;" d="M240.609,278.222c-0.295,0-0.59-0.107-0.823-0.323c-0.488-0.454-0.516-1.218-0.061-1.706       c0.559-0.603,5.599-5.896,10.005-6.109c0.75-0.037,1.234,0.483,1.264,1.149c0.033,0.666-0.481,1.232-1.146,1.264       c-2.906,0.139-7.017,3.902-8.354,5.34C241.256,278.092,240.932,278.222,240.609,278.222z"/>
				</g>
				<g>
					<path style="fill:#241726;" d="M212.835,302.108c-0.295,0-0.59-0.107-0.821-0.323c-0.49-0.454-0.519-1.217-0.064-1.706       c0.559-0.603,5.597-5.896,10.003-6.109c0.75-0.025,1.233,0.484,1.264,1.149c0.033,0.666-0.481,1.232-1.146,1.264       c-2.906,0.139-7.014,3.902-8.352,5.34C213.481,301.978,213.158,302.108,212.835,302.108z"/>
				</g>
				<g>
					<path style="fill:#241726;" d="M205.083,293.965c-0.167,0-0.34-0.035-0.502-0.11c-0.606-0.277-0.873-0.993-0.597-1.599       c0.342-0.749,3.455-7.361,7.573-8.949c0.618-0.237,1.321,0.071,1.561,0.691c0.238,0.623-0.071,1.322-0.694,1.561       c-2.712,1.047-5.427,5.913-6.243,7.7C205.979,293.703,205.54,293.965,205.083,293.965z"/>
				</g>
			</g>
		</g>
		<g>
			<path style="fill:#241726;" d="M74.065,263.799c-0.281,0-0.564-0.098-0.792-0.296c-0.059-0.051-1.441-1.258-3.566-3.438     c-0.464-0.478-0.455-1.243,0.024-1.708c0.474-0.464,1.238-0.456,1.707,0.021c2.047,2.102,3.406,3.29,3.42,3.302     c0.502,0.438,0.557,1.201,0.118,1.703C74.737,263.659,74.402,263.799,74.065,263.799z M67.287,256.878     c-0.335,0-0.668-0.138-0.906-0.41c-1-1.133-2.059-2.389-3.146-3.754c-0.415-0.522-0.328-1.282,0.194-1.697     c0.519-0.413,1.278-0.331,1.698,0.192c1.059,1.331,2.094,2.557,3.066,3.664c0.441,0.5,0.394,1.263-0.108,1.704     C67.855,256.779,67.57,256.878,67.287,256.878z M61.268,249.311c-0.375,0-0.748-0.176-0.984-0.506     c-0.92-1.289-1.837-2.646-2.738-4.065c-0.356-0.564-0.189-1.309,0.375-1.666c0.559-0.359,1.307-0.192,1.667,0.374     c0.873,1.381,1.766,2.701,2.663,3.954c0.387,0.542,0.262,1.297-0.281,1.684C61.756,249.237,61.51,249.311,61.268,249.311z      M56.107,241.141c-0.425,0-0.84-0.227-1.059-0.628c-0.797-1.455-1.542-2.932-2.217-4.387c-0.278-0.606-0.014-1.323,0.59-1.604     c0.606-0.279,1.321-0.015,1.604,0.59c0.649,1.407,1.37,2.833,2.141,4.241c0.321,0.585,0.106,1.318-0.479,1.639     C56.503,241.093,56.305,241.141,56.107,241.141z M52.083,232.361c-0.493,0-0.955-0.303-1.134-0.791     c-0.571-1.559-1.073-3.143-1.493-4.705c-0.175-0.645,0.208-1.307,0.851-1.48c0.651-0.172,1.307,0.209,1.479,0.853     c0.403,1.495,0.884,3.008,1.432,4.5c0.229,0.626-0.092,1.32-0.719,1.55C52.362,232.337,52.223,232.361,52.083,232.361z      M49.609,223.039c-0.583,0-1.094-0.423-1.191-1.017c-0.264-1.664-0.436-3.326-0.507-4.938c-0.028-0.666,0.488-1.23,1.156-1.259     c0.66-0.048,1.226,0.488,1.259,1.153c0.066,1.521,0.226,3.09,0.479,4.662c0.104,0.659-0.344,1.278-1.003,1.383     C49.737,223.034,49.673,223.039,49.609,223.039z M49.201,213.412c-0.033,0-0.066-0.001-0.097-0.004     c-0.665-0.053-1.163-0.634-1.109-1.299c0.13-1.651,0.368-3.309,0.71-4.929c0.139-0.653,0.774-1.067,1.432-0.933     c0.651,0.138,1.069,0.778,0.932,1.43c-0.321,1.519-0.545,3.074-0.667,4.623C50.352,212.932,49.824,213.412,49.201,213.412z      M51.187,203.987c-0.132,0-0.267-0.021-0.399-0.068c-0.63-0.221-0.962-0.909-0.741-1.539c0.54-1.539,1.189-3.081,1.932-4.583     c0.297-0.599,1.026-0.837,1.618-0.547c0.597,0.296,0.842,1.02,0.547,1.618c-0.698,1.414-1.311,2.865-1.818,4.311     C52.152,203.676,51.685,203.987,51.187,203.987z M74.405,199.139c-0.106,0-0.215-0.014-0.321-0.044     c-1.632-0.449-3.189-1.35-4.627-2.676c-0.491-0.452-0.521-1.216-0.071-1.706c0.453-0.491,1.215-0.519,1.707-0.07     c1.153,1.063,2.375,1.777,3.632,2.124c0.644,0.177,1.021,0.842,0.844,1.485C75.421,198.788,74.935,199.139,74.405,199.139z      M79.176,199.076c-0.538,0-1.026-0.36-1.168-0.902c-0.17-0.646,0.217-1.305,0.863-1.474c1.514-0.395,2.5-1.099,2.934-2.093     c0.264-0.612,0.991-0.887,1.587-0.625c0.613,0.266,0.891,0.978,0.625,1.59c-0.51,1.174-1.712,2.729-4.538,3.466     C79.379,199.063,79.275,199.076,79.176,199.076z M55.418,195.327c-0.222,0-0.446-0.06-0.646-0.188     c-0.564-0.357-0.731-1.104-0.373-1.666c0.934-1.477,1.929-2.831,2.955-4.028c0.439-0.505,1.203-0.564,1.703-0.13     c0.507,0.434,0.566,1.196,0.132,1.703c-0.953,1.108-1.877,2.37-2.752,3.748C56.208,195.129,55.817,195.327,55.418,195.327z      M67.265,192.98c-0.406,0-0.802-0.205-1.031-0.578c-0.823-1.347-1.568-2.869-2.215-4.526c-0.165-0.426-0.073-0.889,0.2-1.216     c-0.587,0.349-1.167,0.745-1.736,1.185c-0.526,0.405-1.285,0.31-1.693-0.216c-0.408-0.528-0.311-1.287,0.217-1.695     c1.002-0.777,2.042-1.436,3.106-1.969c-0.043,0.015-0.085,0.028-0.127,0.039c-0.653,0.153-1.302-0.238-1.462-0.883     c-0.384-1.56-0.693-3.201-0.917-4.875c-0.09-0.662,0.375-1.269,1.035-1.357c0.649-0.094,1.269,0.375,1.356,1.037     c0.215,1.589,0.507,3.142,0.87,4.618c0.127,0.517-0.099,1.039-0.526,1.309c0.373-0.18,0.748-0.344,1.125-0.493     c0.62-0.243,1.323,0.058,1.566,0.679c0.245,0.62-0.059,1.322-0.679,1.566c-0.467,0.184-0.929,0.398-1.389,0.638     c0.535-0.097,1.094,0.219,1.304,0.756c0.594,1.523,1.276,2.919,2.026,4.144c0.347,0.568,0.168,1.312-0.401,1.66     C67.699,192.924,67.482,192.98,67.265,192.98z M82.528,191.63c-0.448,0-0.877-0.25-1.087-0.68     c-0.58-1.197-1.509-2.353-2.691-3.341c-0.512-0.428-0.578-1.19-0.151-1.701c0.432-0.511,1.193-0.578,1.703-0.151     c1.439,1.205,2.585,2.637,3.314,4.138c0.29,0.6,0.04,1.323-0.561,1.613C82.884,191.591,82.704,191.63,82.528,191.63z      M75.355,185.499c-0.137,0-0.273-0.022-0.408-0.071c-1.311-0.472-2.67-0.71-4.04-0.71l-0.262,0.003     c-0.62,0.033-1.219-0.511-1.236-1.178c-0.017-0.666,0.512-1.221,1.179-1.237l0.318-0.004c1.649,0,3.283,0.287,4.856,0.851     c0.627,0.227,0.953,0.918,0.729,1.545C76.315,185.192,75.85,185.499,75.355,185.499z M62.402,174.482     c-0.649,0-1.186-0.514-1.208-1.168c-0.019-0.582-0.028-1.169-0.031-1.757c0-1.058,0.031-2.12,0.099-3.188     c0.042-0.663,0.552-1.145,1.281-1.129c0.667,0.042,1.172,0.616,1.13,1.282c-0.064,1.015-0.094,2.026-0.094,3.029     c0.002,0.56,0.012,1.123,0.031,1.682c0.021,0.666-0.5,1.225-1.167,1.247C62.428,174.482,62.414,174.482,62.402,174.482z      M63.003,164.856c-0.066,0-0.13-0.005-0.196-0.015c-0.658-0.107-1.106-0.728-0.998-1.386c0.267-1.643,0.616-3.273,1.043-4.843     c0.177-0.641,0.83-1.029,1.481-0.849c0.644,0.173,1.023,0.837,0.849,1.481c-0.403,1.491-0.736,3.038-0.991,4.598     C64.098,164.435,63.584,164.856,63.003,164.856z M65.541,155.556c-0.149,0-0.299-0.027-0.446-0.086     c-0.62-0.247-0.922-0.948-0.677-1.567c0.62-1.56,1.335-3.076,2.123-4.504c0.321-0.585,1.061-0.795,1.639-0.475     c0.585,0.322,0.797,1.057,0.474,1.64c-0.738,1.341-1.408,2.764-1.991,4.23C66.475,155.268,66.02,155.556,65.541,155.556z      M120.903,148.815c-1.174,0-2.488-0.361-3.906-1.071l0.427-1.138l0.566-1.066c1.58,0.792,2.847,1.027,3.686,0.744     c0.634-0.209,1.318,0.129,1.528,0.761c0.212,0.632-0.127,1.317-0.759,1.53C121.974,148.733,121.455,148.814,120.903,148.815z      M70.204,147.132c-0.252,0-0.505-0.078-0.722-0.239c-0.535-0.399-0.644-1.156-0.245-1.69c1.002-1.346,2.104-2.617,3.276-3.781     c0.474-0.471,1.238-0.466,1.708,0.007c0.472,0.473,0.467,1.237-0.005,1.708c-1.087,1.079-2.111,2.261-3.045,3.51     C70.935,146.965,70.572,147.132,70.204,147.132z M123.906,144.633c-0.58,0-1.092-0.42-1.189-1.013     c-0.196-1.188-0.842-2.52-1.818-3.755c-0.415-0.522-0.328-1.282,0.196-1.696c0.519-0.414,1.281-0.329,1.696,0.196     c1.248,1.573,2.047,3.256,2.309,4.866c0.109,0.658-0.337,1.278-0.995,1.387C124.038,144.629,123.972,144.633,123.906,144.633z      M113.849,144.623c-0.358,0-0.712-0.159-0.951-0.464c-0.955-1.219-1.851-2.667-2.67-4.306c-0.297-0.597-0.057-1.322,0.54-1.619     c0.601-0.298,1.321-0.058,1.62,0.541c0.745,1.493,1.557,2.803,2.41,3.895c0.41,0.525,0.318,1.284-0.205,1.695     C114.373,144.539,114.111,144.623,113.849,144.623z M77.035,140.359c-0.373,0-0.741-0.172-0.977-0.496     c-0.391-0.54-0.274-1.295,0.267-1.688c1.34-0.975,2.771-1.862,4.255-2.632c0.585-0.308,1.318-0.079,1.627,0.513     c0.309,0.592,0.078,1.321-0.514,1.629c-1.375,0.716-2.703,1.538-3.948,2.444C77.53,140.283,77.282,140.359,77.035,140.359z      M118.286,137.085c-0.233,0-0.469-0.067-0.675-0.206c-1.201-0.81-2.559-1.507-4.04-2.072c-0.625-0.238-0.936-0.936-0.698-1.559     c0.236-0.623,0.939-0.935,1.557-0.698c1.656,0.631,3.179,1.414,4.531,2.327c0.554,0.374,0.701,1.124,0.326,1.677     C119.052,136.899,118.672,137.085,118.286,137.085z M109.465,136.061c-0.502,0-0.972-0.316-1.144-0.819     c-0.212-0.623-0.413-1.259-0.599-1.906c-1.038-0.146-2.113-0.245-3.215-0.296c-0.665-0.031-1.182-0.597-1.149-1.263     c0.031-0.665,0.606-1.191,1.262-1.15c0.83,0.039,1.651,0.104,2.451,0.192c-0.026-0.119-0.054-0.239-0.08-0.36     c-0.144-0.651,0.269-1.295,0.92-1.439c0.66-0.142,1.295,0.27,1.439,0.92c0.094,0.426,0.193,0.848,0.299,1.268     c0.618,0.152,1.017,0.763,0.896,1.396c-0.047,0.249-0.167,0.465-0.333,0.631c0.125,0.414,0.257,0.824,0.396,1.228     c0.215,0.631-0.123,1.317-0.755,1.532C109.724,136.041,109.594,136.061,109.465,136.061z M85.563,135.906     c-0.498,0-0.965-0.31-1.139-0.807c-0.222-0.629,0.108-1.318,0.738-1.54c0.995-0.35,2.024-0.665,3.087-0.945     c0.568-0.147,1.127-0.287,1.675-0.416c0.679-0.152,1.302,0.252,1.453,0.899c0.153,0.649-0.248,1.3-0.896,1.453     c-0.533,0.125-1.073,0.259-1.62,0.402c-0.995,0.261-1.962,0.557-2.896,0.886C85.832,135.883,85.695,135.906,85.563,135.906z      M94.936,133.643c-0.583,0-1.097-0.425-1.191-1.019c-0.104-0.659,0.347-1.277,1.005-1.381c1.679-0.265,3.33-0.453,4.908-0.555     c0.606-0.018,1.238,0.46,1.283,1.126c0.042,0.666-0.462,1.241-1.127,1.284c-1.505,0.098-3.08,0.276-4.687,0.53     C95.063,133.638,95,133.643,94.936,133.643z M107.365,126.645c-0.604,0-1.125-0.454-1.198-1.07     c-0.189-1.636-0.297-3.296-0.323-4.938c-0.009-0.666,0.521-1.216,1.189-1.227c0.656-0.044,1.215,0.521,1.226,1.189     c0.024,1.561,0.127,3.142,0.309,4.699c0.076,0.662-0.399,1.261-1.061,1.337C107.46,126.642,107.413,126.645,107.365,126.645z      M107.243,117.001c-0.038,0-0.075-0.001-0.113-0.005c-0.663-0.061-1.153-0.65-1.092-1.314c0.153-1.656,0.399-3.307,0.729-4.906     c0.134-0.656,0.79-1.071,1.427-0.939c0.651,0.136,1.073,0.774,0.936,1.427c-0.311,1.512-0.543,3.072-0.686,4.639     C108.384,116.53,107.858,117.001,107.243,117.001z M109.21,107.57c-0.13,0-0.259-0.02-0.389-0.065     c-0.632-0.215-0.969-0.9-0.755-1.532c0.542-1.59,1.184-3.139,1.91-4.605c0.299-0.599,1.026-0.84,1.618-0.545     c0.599,0.296,0.842,1.02,0.547,1.618c-0.679,1.37-1.281,2.821-1.788,4.31C110.182,107.254,109.712,107.57,109.21,107.57z      M113.5,98.952c-0.236,0-0.474-0.068-0.682-0.211c-0.552-0.377-0.691-1.129-0.314-1.679c0.939-1.369,1.986-2.684,3.111-3.908     c0.453-0.489,1.215-0.52,1.707-0.07c0.491,0.452,0.521,1.216,0.071,1.706c-1.05,1.139-2.024,2.362-2.899,3.637     C114.262,98.768,113.884,98.952,113.5,98.952z M120.012,91.871c-0.349,0-0.696-0.151-0.934-0.443     c-0.422-0.517-0.347-1.277,0.17-1.699c1.264-1.033,2.627-2.006,4.054-2.889c0.564-0.348,1.309-0.179,1.663,0.39     c0.352,0.566,0.177,1.312-0.389,1.662c-1.34,0.829-2.616,1.739-3.8,2.708C120.552,91.782,120.281,91.871,120.012,91.871z      M128.189,86.79c-0.455,0-0.892-0.258-1.094-0.698c-0.281-0.605-0.019-1.323,0.585-1.605c1.46-0.678,3.007-1.298,4.597-1.843     c0.63-0.213,1.318,0.12,1.533,0.751c0.217,0.631-0.12,1.317-0.75,1.534c-1.512,0.518-2.979,1.106-4.361,1.749     C128.533,86.754,128.361,86.79,128.189,86.79z M137.295,83.641c-0.545,0-1.038-0.369-1.172-0.921     c-0.158-0.649,0.238-1.302,0.887-1.46c1.545-0.377,3.168-0.705,4.821-0.974c0.644-0.102,1.276,0.339,1.384,0.999     c0.108,0.658-0.34,1.278-0.998,1.386c-1.59,0.258-3.151,0.573-4.637,0.936C137.486,83.631,137.39,83.641,137.295,83.641z      M146.81,82.078c-0.616,0-1.141-0.469-1.201-1.094c-0.061-0.664,0.427-1.254,1.09-1.316c0.969-0.091,1.96-0.165,2.969-0.223     c0.658-0.052,1.236,0.469,1.276,1.136c0.04,0.665-0.469,1.237-1.134,1.275c-0.981,0.058-1.943,0.13-2.885,0.218     C146.888,82.076,146.848,82.078,146.81,82.078z"/>
		</g>
		<g>
			<path style="fill:#241726;" d="M297.17,476.872c-0.002,0-0.035,0-0.038,0c-4.717-0.02-8.54-3.876-8.522-8.595     c0.021-4.699,3.861-8.522,8.557-8.522c2.323,0.01,4.469,0.909,6.078,2.533c1.611,1.624,2.491,3.777,2.481,6.063     C305.708,473.05,301.868,476.872,297.17,476.872z M297.196,462.171c-3.399,0-6.154,2.744-6.17,6.117     c-0.014,3.386,2.729,6.153,6.116,6.169l0.028,1.208v-1.208c3.373,0,6.128-2.743,6.142-6.116c0.007-1.642-0.625-3.186-1.781-4.352     C300.375,462.824,298.835,462.178,297.196,462.171z"/>
		</g>
		<g>
			<path style="fill:#241726;" d="M489.505,295.598c-0.002,0-0.035,0-0.038,0c-2.285-0.009-4.432-0.909-6.04-2.532     c-1.611-1.624-2.491-3.777-2.481-6.064c0.019-4.698,3.859-8.52,8.557-8.52c4.755,0.02,8.578,3.876,8.559,8.594     C498.04,291.776,494.201,295.598,489.505,295.598z M489.531,280.897c-3.401,0-6.156,2.743-6.17,6.116     c-0.007,1.642,0.625,3.186,1.781,4.352c1.156,1.165,2.694,1.811,4.335,1.818l0.028,1.208v-1.208c3.37,0,6.125-2.744,6.142-6.117     C495.66,283.679,492.918,280.913,489.531,280.897z"/>
		</g>
		<g>
			<path style="fill:#241726;" d="M162.591,59.123c-0.002,0-0.035,0-0.038,0c-2.288-0.009-4.434-0.909-6.043-2.533     c-1.609-1.623-2.488-3.776-2.479-6.062c0.019-4.698,3.856-8.52,8.555-8.52c2.326,0.01,4.472,0.909,6.08,2.533     c1.609,1.624,2.488,3.776,2.479,6.063C171.126,55.301,167.289,59.123,162.591,59.123z M162.614,44.422     c-3.399,0-6.153,2.743-6.168,6.116c-0.007,1.642,0.625,3.188,1.778,4.353c1.156,1.165,2.696,1.81,4.337,1.817l0.028,1.208v-1.208     c3.37,0,6.125-2.743,6.139-6.116c0.007-1.642-0.625-3.187-1.778-4.352C165.796,45.076,164.256,44.429,162.614,44.422z"/>
		</g>
	</g>
</g>















</svg>
